<mxfile host="Electron" modified="2025-02-20T07:18:08.482Z" agent="Mozilla/5.0 (Windows NT 10.0; Win64; x64) AppleWebKit/537.36 (KHTML, like Gecko) draw.io/24.1.0 Chrome/120.0.6099.109 Electron/28.1.0 Safari/537.36" etag="TX6Ex8Tr7HchwrPO_9ak" version="24.1.0" type="device">
  <diagram id="cPhL8d0vtsXr2UynWkRd" name="Page-1">
    <mxGraphModel dx="3804" dy="1196" grid="1" gridSize="10" guides="1" tooltips="1" connect="1" arrows="1" fold="1" page="1" pageScale="1" pageWidth="850" pageHeight="1100" math="0" shadow="0">
      <root>
        <mxCell id="0" />
        <mxCell id="1" parent="0" />
        <mxCell id="J6pMH1p_7KSv0R4gjlsr-37" value="" style="group" parent="1" vertex="1" connectable="0">
          <mxGeometry x="1400" y="240" width="120" height="1320" as="geometry" />
        </mxCell>
        <mxCell id="jxoymsFl4kqGbWP8mDqd-17" value="EVENT STREAM" style="rounded=0;whiteSpace=wrap;html=1;labelBackgroundColor=none;strokeColor=#660033;strokeWidth=3;fontColor=#000000;fillColor=#67AB9F;sketch=1;verticalAlign=bottom;labelPosition=center;verticalLabelPosition=top;align=center;dashed=1;fillStyle=solid;opacity=10;fontSize=15;fontStyle=1" parent="J6pMH1p_7KSv0R4gjlsr-37" vertex="1">
          <mxGeometry width="120" height="1320" as="geometry" />
        </mxCell>
        <mxCell id="jxoymsFl4kqGbWP8mDqd-10" value="&lt;b style=&quot;&quot;&gt;&lt;u style=&quot;&quot;&gt;Service Bus&lt;/u&gt;&lt;/b&gt;" style="shape=cylinder3;whiteSpace=wrap;html=1;boundedLbl=1;backgroundOutline=1;size=15;labelBackgroundColor=none;strokeColor=#3333FF;fontColor=#000000;fillColor=none;strokeWidth=2;opacity=50;dashed=1;verticalAlign=top;labelPosition=center;verticalLabelPosition=bottom;align=center;" parent="J6pMH1p_7KSv0R4gjlsr-37" vertex="1">
          <mxGeometry x="20" y="20.625" width="80" height="1268.4375" as="geometry" />
        </mxCell>
        <mxCell id="jxoymsFl4kqGbWP8mDqd-11" value="" style="sketch=0;aspect=fixed;html=1;points=[];align=center;image;fontSize=12;image=img/lib/mscae/Service_Bus.svg;labelBackgroundColor=#99FF99;strokeColor=default;strokeWidth=2;fontColor=#FF3333;fillColor=none;" parent="J6pMH1p_7KSv0R4gjlsr-37" vertex="1">
          <mxGeometry x="35" y="92.81250000000001" width="50" height="50" as="geometry" />
        </mxCell>
        <mxCell id="jxoymsFl4kqGbWP8mDqd-13" value="" style="sketch=0;aspect=fixed;html=1;points=[];align=center;image;fontSize=12;image=img/lib/mscae/Service_Bus.svg;labelBackgroundColor=#99FF99;strokeColor=default;strokeWidth=2;fontColor=#FF3333;fillColor=none;" parent="J6pMH1p_7KSv0R4gjlsr-37" vertex="1">
          <mxGeometry x="35" y="276.37500000000006" width="50" height="50" as="geometry" />
        </mxCell>
        <mxCell id="jxoymsFl4kqGbWP8mDqd-14" value="" style="sketch=0;aspect=fixed;html=1;points=[];align=center;image;fontSize=12;image=img/lib/mscae/Service_Bus.svg;labelBackgroundColor=#99FF99;strokeColor=default;strokeWidth=2;fontColor=#FF3333;fillColor=none;" parent="J6pMH1p_7KSv0R4gjlsr-37" vertex="1">
          <mxGeometry x="35" y="460.96875000000006" width="50" height="50" as="geometry" />
        </mxCell>
        <mxCell id="jxoymsFl4kqGbWP8mDqd-15" value="" style="sketch=0;aspect=fixed;html=1;points=[];align=center;image;fontSize=12;image=img/lib/mscae/Service_Bus.svg;labelBackgroundColor=#99FF99;strokeColor=default;strokeWidth=2;fontColor=#FF3333;fillColor=none;" parent="J6pMH1p_7KSv0R4gjlsr-37" vertex="1">
          <mxGeometry x="35" y="644.53125" width="50" height="50" as="geometry" />
        </mxCell>
        <mxCell id="jxoymsFl4kqGbWP8mDqd-16" value="" style="sketch=0;aspect=fixed;html=1;points=[];align=center;image;fontSize=12;image=img/lib/mscae/Service_Bus.svg;labelBackgroundColor=#99FF99;strokeColor=default;strokeWidth=2;fontColor=#FF3333;fillColor=none;" parent="J6pMH1p_7KSv0R4gjlsr-37" vertex="1">
          <mxGeometry x="35" y="828.0937500000001" width="50" height="50" as="geometry" />
        </mxCell>
        <mxCell id="J6pMH1p_7KSv0R4gjlsr-18" value="" style="sketch=0;aspect=fixed;html=1;points=[];align=center;image;fontSize=12;image=img/lib/mscae/Service_Bus.svg;labelBackgroundColor=#99FF99;strokeColor=default;strokeWidth=2;fontColor=#FF3333;fillColor=none;" parent="J6pMH1p_7KSv0R4gjlsr-37" vertex="1">
          <mxGeometry x="35" y="1012.6875000000001" width="50" height="50" as="geometry" />
        </mxCell>
        <mxCell id="J6pMH1p_7KSv0R4gjlsr-19" value="" style="sketch=0;aspect=fixed;html=1;points=[];align=center;image;fontSize=12;image=img/lib/mscae/Service_Bus.svg;labelBackgroundColor=#99FF99;strokeColor=default;strokeWidth=2;fontColor=#FF3333;fillColor=none;" parent="J6pMH1p_7KSv0R4gjlsr-37" vertex="1">
          <mxGeometry x="35" y="1196.25" width="50" height="50" as="geometry" />
        </mxCell>
        <mxCell id="J6pMH1p_7KSv0R4gjlsr-58" value="" style="group" parent="1" vertex="1" connectable="0">
          <mxGeometry x="480" y="240" width="280" height="1320" as="geometry" />
        </mxCell>
        <mxCell id="jxoymsFl4kqGbWP8mDqd-75" value="GATEWAY &amp;amp; IAM" style="rounded=0;whiteSpace=wrap;html=1;shadow=0;glass=0;dashed=1;labelBackgroundColor=none;sketch=1;strokeColor=#660033;strokeWidth=3;fontSize=15;fontColor=#000000;fillColor=#FFE599;verticalAlign=bottom;fontStyle=1;labelPosition=center;verticalLabelPosition=top;align=center;opacity=10;fillStyle=solid;" parent="J6pMH1p_7KSv0R4gjlsr-58" vertex="1">
          <mxGeometry width="280" height="1320" as="geometry" />
        </mxCell>
        <mxCell id="3Wsy6diL1BG13nHRlo5x-35" value="" style="group" parent="J6pMH1p_7KSv0R4gjlsr-58" vertex="1" connectable="0">
          <mxGeometry x="40" y="20" width="160" height="120" as="geometry" />
        </mxCell>
        <mxCell id="3Wsy6diL1BG13nHRlo5x-15" value="" style="rounded=0;whiteSpace=wrap;html=1;glass=0;sketch=1;fillStyle=auto;strokeWidth=1;fillColor=#FFCC99;fontColor=#ffffff;strokeColor=#000000;" parent="3Wsy6diL1BG13nHRlo5x-35" vertex="1">
          <mxGeometry width="160" height="120" as="geometry" />
        </mxCell>
        <mxCell id="3Wsy6diL1BG13nHRlo5x-14" value="Azure Entra ID" style="aspect=fixed;html=1;points=[];align=center;image;fontSize=12;image=img/lib/azure2/identity/Azure_Active_Directory.svg;rounded=0;glass=0;sketch=1;fillStyle=auto;strokeWidth=1;fillColor=#F8CECC;gradientColor=none;fontStyle=5" parent="3Wsy6diL1BG13nHRlo5x-35" vertex="1">
          <mxGeometry x="45" y="28" width="70" height="64" as="geometry" />
        </mxCell>
        <mxCell id="3Wsy6diL1BG13nHRlo5x-40" value="" style="group" parent="J6pMH1p_7KSv0R4gjlsr-58" vertex="1" connectable="0">
          <mxGeometry x="145" y="1144" width="120" height="120" as="geometry" />
        </mxCell>
        <mxCell id="3Wsy6diL1BG13nHRlo5x-38" value="&lt;b&gt;&lt;u&gt;KeyVault&lt;/u&gt;&lt;/b&gt;" style="aspect=fixed;html=1;points=[];align=center;image;fontSize=12;image=img/lib/azure2/security/Key_Vaults.svg;rounded=0;glass=0;sketch=1;fillStyle=auto;strokeColor=#000000;strokeWidth=1;fillColor=#8AE6D5;gradientColor=none;" parent="3Wsy6diL1BG13nHRlo5x-40" vertex="1">
          <mxGeometry x="26" y="26" width="68" height="68" as="geometry" />
        </mxCell>
        <mxCell id="J6pMH1p_7KSv0R4gjlsr-34" value="" style="group" parent="3Wsy6diL1BG13nHRlo5x-40" vertex="1" connectable="0">
          <mxGeometry width="120" height="120" as="geometry" />
        </mxCell>
        <mxCell id="3Wsy6diL1BG13nHRlo5x-39" value="" style="rounded=0;whiteSpace=wrap;html=1;glass=0;sketch=1;fillStyle=auto;strokeColor=#000000;strokeWidth=1;fillColor=#A9C4EB;gradientColor=none;" parent="J6pMH1p_7KSv0R4gjlsr-34" vertex="1">
          <mxGeometry width="120" height="120" as="geometry" />
        </mxCell>
        <mxCell id="J6pMH1p_7KSv0R4gjlsr-33" value="&lt;b&gt;&lt;u&gt;KeyVault&lt;/u&gt;&lt;/b&gt;" style="aspect=fixed;html=1;points=[];align=center;image;fontSize=12;image=img/lib/azure2/security/Key_Vaults.svg;rounded=0;glass=0;sketch=1;fillStyle=auto;strokeColor=#000000;strokeWidth=1;fillColor=#8AE6D5;gradientColor=none;" parent="J6pMH1p_7KSv0R4gjlsr-34" vertex="1">
          <mxGeometry x="26" y="26" width="68" height="68" as="geometry" />
        </mxCell>
        <mxCell id="3Wsy6diL1BG13nHRlo5x-43" value="" style="group" parent="J6pMH1p_7KSv0R4gjlsr-58" vertex="1" connectable="0">
          <mxGeometry x="13" y="1169" width="120" height="120" as="geometry" />
        </mxCell>
        <mxCell id="J6pMH1p_7KSv0R4gjlsr-35" value="" style="group" parent="3Wsy6diL1BG13nHRlo5x-43" vertex="1" connectable="0">
          <mxGeometry width="120" height="120" as="geometry" />
        </mxCell>
        <mxCell id="3Wsy6diL1BG13nHRlo5x-42" value="" style="rounded=0;whiteSpace=wrap;html=1;glass=0;sketch=1;fillStyle=auto;strokeColor=#000000;strokeWidth=1;fillColor=#FFFF33;gradientColor=none;" parent="J6pMH1p_7KSv0R4gjlsr-35" vertex="1">
          <mxGeometry width="120" height="120" as="geometry" />
        </mxCell>
        <mxCell id="3Wsy6diL1BG13nHRlo5x-41" value="Redis Cache" style="aspect=fixed;html=1;points=[];align=center;image;fontSize=12;image=img/lib/azure2/databases/Cache_Redis.svg;rounded=0;glass=0;sketch=1;fillStyle=auto;strokeColor=#000000;strokeWidth=1;fillColor=#A9C4EB;gradientColor=none;fontStyle=5" parent="J6pMH1p_7KSv0R4gjlsr-35" vertex="1">
          <mxGeometry x="28" y="34" width="64" height="52" as="geometry" />
        </mxCell>
        <mxCell id="jxoymsFl4kqGbWP8mDqd-38" style="edgeStyle=none;rounded=0;sketch=1;orthogonalLoop=1;jettySize=auto;html=1;exitX=0.5;exitY=0;exitDx=0;exitDy=0;entryX=0.5;entryY=1;entryDx=0;entryDy=0;strokeColor=#994C00;strokeWidth=1;fontSize=15;fontColor=#000000;endArrow=classic;endFill=1;startArrow=classicThin;startFill=1;" parent="J6pMH1p_7KSv0R4gjlsr-58" source="3Wsy6diL1BG13nHRlo5x-36" target="3Wsy6diL1BG13nHRlo5x-15" edge="1">
          <mxGeometry relative="1" as="geometry" />
        </mxCell>
        <mxCell id="jxoymsFl4kqGbWP8mDqd-39" style="edgeStyle=none;rounded=0;sketch=1;orthogonalLoop=1;jettySize=auto;html=1;exitX=0.25;exitY=1;exitDx=0;exitDy=0;entryX=0.5;entryY=0;entryDx=0;entryDy=0;strokeColor=#BD5E00;strokeWidth=1;fontSize=15;fontColor=#000000;startArrow=classicThin;startFill=1;endArrow=classic;endFill=1;" parent="J6pMH1p_7KSv0R4gjlsr-58" source="3Wsy6diL1BG13nHRlo5x-36" target="3Wsy6diL1BG13nHRlo5x-42" edge="1">
          <mxGeometry relative="1" as="geometry" />
        </mxCell>
        <mxCell id="jxoymsFl4kqGbWP8mDqd-40" style="edgeStyle=none;rounded=0;sketch=1;orthogonalLoop=1;jettySize=auto;html=1;exitX=0.5;exitY=0;exitDx=0;exitDy=0;strokeColor=#BD5E00;strokeWidth=1;fontSize=15;fontColor=#000000;startArrow=classic;startFill=1;endArrow=none;endFill=0;entryX=0.75;entryY=1;entryDx=0;entryDy=0;" parent="J6pMH1p_7KSv0R4gjlsr-58" source="3Wsy6diL1BG13nHRlo5x-39" target="3Wsy6diL1BG13nHRlo5x-36" edge="1">
          <mxGeometry relative="1" as="geometry">
            <mxPoint x="160" y="670" as="targetPoint" />
          </mxGeometry>
        </mxCell>
        <mxCell id="J6pMH1p_7KSv0R4gjlsr-32" value="" style="group" parent="J6pMH1p_7KSv0R4gjlsr-58" vertex="1" connectable="0">
          <mxGeometry x="70" y="181" width="120" height="899" as="geometry" />
        </mxCell>
        <mxCell id="3Wsy6diL1BG13nHRlo5x-36" value="" style="rounded=0;whiteSpace=wrap;html=1;glass=0;sketch=1;fillStyle=auto;strokeColor=#000000;strokeWidth=1;fillColor=#8AE6D5;gradientColor=none;shadow=0;" parent="J6pMH1p_7KSv0R4gjlsr-32" vertex="1">
          <mxGeometry width="120" height="899" as="geometry" />
        </mxCell>
        <mxCell id="3Wsy6diL1BG13nHRlo5x-37" value="API Management&lt;br&gt;(Gateway)" style="aspect=fixed;html=1;points=[];align=center;image;fontSize=12;image=img/lib/azure2/app_services/API_Management_Services.svg;rounded=0;glass=0;sketch=1;fillStyle=auto;strokeColor=#000000;strokeWidth=1;fillColor=#CCCCCC;gradientColor=none;fontStyle=5" parent="J6pMH1p_7KSv0R4gjlsr-32" vertex="1">
          <mxGeometry x="25" y="419.5" width="70" height="60" as="geometry" />
        </mxCell>
        <mxCell id="UJXelhgqi3lZG2bOgomG-2" value="" style="group" parent="1" vertex="1" connectable="0">
          <mxGeometry x="520" y="40" width="1080" height="160" as="geometry" />
        </mxCell>
        <mxCell id="J6pMH1p_7KSv0R4gjlsr-40" value="MONITORING &amp;amp; TELEMETRY" style="rounded=0;whiteSpace=wrap;html=1;dashed=1;labelBackgroundColor=default;sketch=1;fillStyle=solid;strokeColor=#660033;fontColor=#000000;fillColor=#C8DEB1;opacity=10;strokeWidth=3;fontSize=15;verticalAlign=bottom;labelPosition=center;verticalLabelPosition=top;align=center;fontStyle=1" parent="UJXelhgqi3lZG2bOgomG-2" vertex="1">
          <mxGeometry width="1080" height="160" as="geometry" />
        </mxCell>
        <mxCell id="UJXelhgqi3lZG2bOgomG-1" value="" style="group" parent="UJXelhgqi3lZG2bOgomG-2" vertex="1" connectable="0">
          <mxGeometry x="20" width="1020" height="140" as="geometry" />
        </mxCell>
        <mxCell id="J6pMH1p_7KSv0R4gjlsr-55" value="" style="rounded=0;whiteSpace=wrap;html=1;labelBackgroundColor=default;sketch=1;fillStyle=auto;strokeColor=#000000;strokeWidth=1;fontSize=15;fontColor=#000000;fillColor=#FFD966;" parent="UJXelhgqi3lZG2bOgomG-1" vertex="1">
          <mxGeometry x="20" y="20" width="1000" height="120" as="geometry" />
        </mxCell>
        <mxCell id="J6pMH1p_7KSv0R4gjlsr-47" value="Azure Monitor" style="shape=image;aspect=fixed;image=data:image/svg+xml,PHN2ZyBpZD0iZTRlNzY0Y2QtMmU3My00NzJmLWI4OGEtYmY4YmZjMmMyOTk0IiB4bWxucz0iaHR0cDovL3d3dy53My5vcmcvMjAwMC9zdmciIHdpZHRoPSIxOCIgaGVpZ2h0PSIxOCIgdmlld0JveD0iMCAwIDE4IDE4Ij48ZGVmcz48cmFkaWFsR3JhZGllbnQgaWQ9ImFjOGIzMmRhLTMwY2EtNGI5Mi04ZDBmLThkMmQ1ZWYyNzhhMCIgY3g9IjUuNzIiIGN5PSI3LjQ1IiByPSI4LjQyIiBncmFkaWVudFRyYW5zZm9ybT0idHJhbnNsYXRlKDMuMjMgMS41MSkgc2NhbGUoMS4wMSAxLjAxKSIgZ3JhZGllbnRVbml0cz0idXNlclNwYWNlT25Vc2UiPjxzdG9wIG9mZnNldD0iMC4xOCIgc3RvcC1jb2xvcj0iIzVlYTBlZiIgLz48c3RvcCBvZmZzZXQ9IjAuNTYiIHN0b3AtY29sb3I9IiM1YzlmZWUiIC8+PHN0b3Agb2Zmc2V0PSIwLjY5IiBzdG9wLWNvbG9yPSIjNTU5Y2VkIiAvPjxzdG9wIG9mZnNldD0iMC43OCIgc3RvcC1jb2xvcj0iIzRhOTdlOSIgLz48c3RvcCBvZmZzZXQ9IjAuODYiIHN0b3AtY29sb3I9IiMzOTkwZTQiIC8+PHN0b3Agb2Zmc2V0PSIwLjkzIiBzdG9wLWNvbG9yPSIjMjM4N2RlIiAvPjxzdG9wIG9mZnNldD0iMC45OSIgc3RvcC1jb2xvcj0iIzA4N2JkNiIgLz48c3RvcCBvZmZzZXQ9IjEiIHN0b3AtY29sb3I9IiMwMDc4ZDQiIC8+PC9yYWRpYWxHcmFkaWVudD48cmFkaWFsR3JhZGllbnQgaWQ9ImE5OTU0ODIwLWNiMzgtNDk0My05ODQyLWYwYTU2OGQyYjAxNSIgY3g9IjI4LjE4IiBjeT0iMjAyLjI5IiByPSIyLjciIGdyYWRpZW50VHJhbnNmb3JtPSJ0cmFuc2xhdGUoLTE3Ljc3IC0xODUuMDEpIHNjYWxlKDAuOTUpIiBncmFkaWVudFVuaXRzPSJ1c2VyU3BhY2VPblVzZSI+PHN0b3Agb2Zmc2V0PSIwLjE5IiBzdG9wLWNvbG9yPSIjOGM4ZTkwIiAvPjxzdG9wIG9mZnNldD0iMC4zNSIgc3RvcC1jb2xvcj0iIzg0ODY4OCIgLz48c3RvcCBvZmZzZXQ9IjAuNiIgc3RvcC1jb2xvcj0iIzZlNzA3MSIgLz48c3RvcCBvZmZzZXQ9IjAuOTEiIHN0b3AtY29sb3I9IiM0YTRiNGMiIC8+PHN0b3Agb2Zmc2V0PSIxIiBzdG9wLWNvbG9yPSIjM2UzZjNmIiAvPjwvcmFkaWFsR3JhZGllbnQ+PC9kZWZzPjx0aXRsZT5JY29uLW1hbmFnZS0zMTc8L3RpdGxlPjxlbGxpcHNlIGN4PSI5IiBjeT0iOSIgcng9IjguNSIgcnk9IjguNDciIGZpbGw9InVybCgjYWM4YjMyZGEtMzBjYS00YjkyLThkMGYtOGQyZDVlZjI3OGEwKSIgLz48ZWxsaXBzZSBjeD0iOSIgY3k9IjkiIHJ4PSI3LjQiIHJ5PSI3LjM3IiBmaWxsPSIjZmZmIiAvPjxwYXRoIGQ9Ik0yLjcyLDkuNDRhNi4yNCw2LjI0LDAsMCwwLDEuODIsNGwyLTJhMy41MywzLjUzLDAsMCwxLTEtMloiIGZpbGw9IiM5Y2ViZmYiIC8+PHBhdGggZD0iTTEzLjEzLDQuMjdBNi4yNSw2LjI1LDAsMCwwLDkuNDQsMi43NFY1LjUzYTMuNDEsMy40MSwwLDAsMSwxLjcxLjdaIiBmaWxsPSIjMzJiZWRkIiAvPjxwYXRoIGQ9Ik00Ljg3LDQuMjdsMiwyYTMuNDEsMy40MSwwLDAsMSwxLjcxLS43VjIuNzRBNi4yNSw2LjI1LDAsMCwwLDQuODcsNC4yN1oiIGZpbGw9IiMzMmJlZGQiIC8+PHBhdGggZD0iTTExLjc4LDYuODVhMy42LDMuNiwwLDAsMSwuNzEsMS43MWgyLjc5YTYuMTYsNi4xNiwwLDAsMC0xLjUzLTMuNjdaIiBmaWxsPSIjMzJiZWRkIiAvPjxwYXRoIGQ9Ik02LjIyLDYuODVsLTItMkE2LjE2LDYuMTYsMCwwLDAsMi43Miw4LjU2SDUuNTFBMy42LDMuNiwwLDAsMSw2LjIyLDYuODVaIiBmaWxsPSIjNTBlNmZmIiAvPjxwYXRoIGQ9Ik0xNC4xNCw3YS40NS40NSwwLDAsMC0uNTctLjI1TDkuNDUsOC40MWwuMzIuODEsNC4xMi0xLjYzQS40NC40NCwwLDAsMCwxNC4xNCw3WiIgZmlsbD0iI2YwNDA0OSIgLz48ZWxsaXBzZSBjeD0iOSIgY3k9IjkiIHJ4PSIxLjIiIHJ5PSIxLjIiIGZpbGw9InVybCgjYTk5NTQ4MjAtY2IzOC00OTQzLTk4NDItZjBhNTY4ZDJiMDE1KSIgLz48L3N2Zz4=;verticalAlign=top;labelPosition=center;verticalLabelPosition=bottom;align=center;fontStyle=5;labelBackgroundColor=default;" parent="UJXelhgqi3lZG2bOgomG-1" vertex="1">
          <mxGeometry width="50" height="50" as="geometry" />
        </mxCell>
        <mxCell id="J6pMH1p_7KSv0R4gjlsr-49" value="Application Insights" style="shape=image;aspect=fixed;image=data:image/svg+xml,PHN2ZyBpZD0iYjZmNmQ5OWUtZjMzMC00ODFkLTgzNmYtZWE1OGNjNDIyMTdmIiB4bWxucz0iaHR0cDovL3d3dy53My5vcmcvMjAwMC9zdmciIHdpZHRoPSIxOCIgaGVpZ2h0PSIxOCIgdmlld0JveD0iMCAwIDE4IDE4Ij48ZGVmcz48cmFkaWFsR3JhZGllbnQgaWQ9ImE3YTFjNDMxLTZjNmQtNGE4Zi05YTY5LThkYTQzN2U1YjBjNSIgY3g9IjkiIGN5PSI3LjM1IiByPSI2LjQyIiBncmFkaWVudFVuaXRzPSJ1c2VyU3BhY2VPblVzZSI+PHN0b3Agb2Zmc2V0PSIwIiBzdG9wLWNvbG9yPSIjYjc3YWY0IiAvPjxzdG9wIG9mZnNldD0iMC4yMSIgc3RvcC1jb2xvcj0iI2IzNzhmMiIgLz48c3RvcCBvZmZzZXQ9IjAuNDMiIHN0b3AtY29sb3I9IiNhNjcyZWQiIC8+PHN0b3Agb2Zmc2V0PSIwLjY1IiBzdG9wLWNvbG9yPSIjOTI2N2U0IiAvPjxzdG9wIG9mZnNldD0iMC44OCIgc3RvcC1jb2xvcj0iIzc1NTlkOCIgLz48c3RvcCBvZmZzZXQ9IjEiIHN0b3AtY29sb3I9IiM2MjRmZDAiIC8+PC9yYWRpYWxHcmFkaWVudD48bGluZWFyR3JhZGllbnQgaWQ9ImVjMGM0ZjBkLTVjOGUtNDg4Mi05NmExLTg5ZDYxODA4ZWI0OSIgeDE9IjkuMDIiIHkxPSIzLjkxIiB4Mj0iOS4wOCIgeTI9IjExLjQ5IiBncmFkaWVudFVuaXRzPSJ1c2VyU3BhY2VPblVzZSI+PHN0b3Agb2Zmc2V0PSIwIiBzdG9wLWNvbG9yPSIjZjJmMmYyIiAvPjxzdG9wIG9mZnNldD0iMC4yMyIgc3RvcC1jb2xvcj0iI2YxZjFmMiIgc3RvcC1vcGFjaXR5PSIwLjk5IiAvPjxzdG9wIG9mZnNldD0iMC4zNyIgc3RvcC1jb2xvcj0iI2VkZWRmMSIgc3RvcC1vcGFjaXR5PSIwLjk1IiAvPjxzdG9wIG9mZnNldD0iMC40OCIgc3RvcC1jb2xvcj0iI2U3ZTVmMCIgc3RvcC1vcGFjaXR5PSIwLjg5IiAvPjxzdG9wIG9mZnNldD0iMC41OCIgc3RvcC1jb2xvcj0iI2RlZGJlZSIgc3RvcC1vcGFjaXR5PSIwLjgxIiAvPjxzdG9wIG9mZnNldD0iMC42NyIgc3RvcC1jb2xvcj0iI2QzY2VlYiIgc3RvcC1vcGFjaXR5PSIwLjciIC8+PHN0b3Agb2Zmc2V0PSIwLjc2IiBzdG9wLWNvbG9yPSIjYzRiZWU4IiBzdG9wLW9wYWNpdHk9IjAuNTciIC8+PHN0b3Agb2Zmc2V0PSIwLjg0IiBzdG9wLWNvbG9yPSIjYjRhYmU1IiBzdG9wLW9wYWNpdHk9IjAuNDEiIC8+PHN0b3Agb2Zmc2V0PSIwLjkyIiBzdG9wLWNvbG9yPSIjYTA5NWUxIiBzdG9wLW9wYWNpdHk9IjAuMjIiIC8+PHN0b3Agb2Zmc2V0PSIwLjk5IiBzdG9wLWNvbG9yPSIjOGI3ZGRjIiBzdG9wLW9wYWNpdHk9IjAuMDIiIC8+PHN0b3Agb2Zmc2V0PSIxIiBzdG9wLWNvbG9yPSIjODk3YmRjIiBzdG9wLW9wYWNpdHk9IjAiIC8+PC9saW5lYXJHcmFkaWVudD48L2RlZnM+PHRpdGxlPkljb24tbWFuYWdlLTMxMDwvdGl0bGU+PHBhdGggZD0iTTEwLjIzLDE3LjM5bC44MS0uODdWMTQuMkg3djIuMzJsLjgxLjg3QS4zMi4zMiwwLDAsMCw4LDE3LjVoMkEuMzIuMzIsMCwwLDAsMTAuMjMsMTcuMzlaIiBmaWxsPSIjY2VjZWNlIiAvPjxwYXRoIGQ9Ik05LC41QTUuODksNS44OSwwLDAsMCwzLjA5LDcuMDdjLjI3LDIuNDcsMi42MiwzLjYyLDMuMjksNi43NWEuNDkuNDksMCwwLDAsLjQ3LjM4aDQuM2EuNDkuNDksMCwwLDAsLjQ3LS4zOGMuNjctMy4xMywzLTQuMjgsMy4yOS02Ljc1QTUuODksNS44OSwwLDAsMCw5LC41Wk03LDE0LjIiIGZpbGw9InVybCgjYTdhMWM0MzEtNmM2ZC00YThmLTlhNjktOGRhNDM3ZTViMGM1KSIgLz48cGF0aCBkPSJNMTEuNDYsMy43OWExLjQsMS40LDAsMCwwLTEuMzUsMS40NFY2SDhWNS4yM0ExLjQxLDEuNDEsMCwwLDAsNi41OSwzLjc5LDEuNCwxLjQsMCwwLDAsNS4yNCw1LjIzLDEuNDEsMS40MSwwLDAsMCw2LjU5LDYuNjhoLjY0djZhLjM2LjM2LDAsMCwwLC43Miwwdi02aDIuMTZ2NmEuMzYuMzYsMCwxLDAsLjcyLDB2LTZoLjYzYTEuNCwxLjQsMCwwLDAsMS4zNS0xLjQ1QTEuNCwxLjQsMCwwLDAsMTEuNDYsMy43OVpNNy4yMyw2SDYuNTVhLjc0Ljc0LDAsMCwxLS42OC0uNzcuNzQuNzQsMCwwLDEsLjY4LS43Ny43NC43NCwwLDAsMSwuNjguNzdabTQuMjgsMGgtLjY4VjUuMTlhLjY4LjY4LDAsMSwxLDEuMzUsMEEuNzMuNzMsMCwwLDEsMTEuNTEsNloiIGZpbGw9InVybCgjZWMwYzRmMGQtNWM4ZS00ODgyLTk2YTEtODlkNjE4MDhlYjQ5KSIgLz48cG9seWdvbiBwb2ludHM9IjYuOTYgMTUuOCAxMS4wNCAxNS4wMSAxMS4wNCAxNC41NiA2Ljk2IDE1LjM2IDYuOTYgMTUuOCIgZmlsbD0iIzk5OSIgLz48cG9seWdvbiBwb2ludHM9IjExLjA0IDE2LjExIDExLjA0IDE1LjY3IDYuOTYgMTYuNDggNi45NiAxNi41MiA3LjI3IDE2Ljg2IDExLjA0IDE2LjExIiBmaWxsPSIjOTk5IiAvPjwvc3ZnPg==;verticalAlign=top;labelPosition=center;verticalLabelPosition=bottom;align=center;fontStyle=5;labelBackgroundColor=default;" parent="UJXelhgqi3lZG2bOgomG-1" vertex="1">
          <mxGeometry x="420" y="46" width="50" height="50" as="geometry" />
        </mxCell>
        <mxCell id="J6pMH1p_7KSv0R4gjlsr-50" value="Metrics" style="shape=image;aspect=fixed;image=data:image/svg+xml,PHN2ZyBpZD0iYjRhOWI1MDctZjA4MC00ZGZhLWFlNWItZDgyNWUxMzJhMjZiIiB4bWxucz0iaHR0cDovL3d3dy53My5vcmcvMjAwMC9zdmciIHdpZHRoPSIxOCIgaGVpZ2h0PSIxOCIgdmlld0JveD0iMCAwIDE4IDE4Ij48ZGVmcz48bGluZWFyR3JhZGllbnQgaWQ9ImUxZDczZjQ3LTc1MmEtNDE1OS05ODQxLWYwZTI5OGRiODUyMiIgeDE9IjYuNTciIHkxPSI3LjA2IiB4Mj0iNi41NyIgeTI9IjMuNzYiIGdyYWRpZW50VW5pdHM9InVzZXJTcGFjZU9uVXNlIj48c3RvcCBvZmZzZXQ9IjAiIHN0b3AtY29sb3I9IiM3NzNhZGMiIC8+PHN0b3Agb2Zmc2V0PSIxIiBzdG9wLWNvbG9yPSIjYjc3YWY0IiAvPjwvbGluZWFyR3JhZGllbnQ+PGxpbmVhckdyYWRpZW50IGlkPSJlOGM2NDQwYS0yNzAxLTQ1MDctOGQwNC1jNWRlZGQxOGJjZjIiIHgxPSIxMS4wMiIgeTE9IjExLjE1IiB4Mj0iMTEuMDIiIHkyPSI3Ljg2IiBncmFkaWVudFVuaXRzPSJ1c2VyU3BhY2VPblVzZSI+PHN0b3Agb2Zmc2V0PSIwIiBzdG9wLWNvbG9yPSIjNzczYWRjIiAvPjxzdG9wIG9mZnNldD0iMSIgc3RvcC1jb2xvcj0iI2I3N2FmNCIgLz48L2xpbmVhckdyYWRpZW50PjxsaW5lYXJHcmFkaWVudCBpZD0iYjQwMzg1YzYtNTIyYy00YjdkLWFmYTAtYzgyMTZmMzE0YmRmIiB4MT0iMTUuMTUiIHkxPSIzLjc5IiB4Mj0iMTUuMTUiIHkyPSIwLjUiIGdyYWRpZW50VW5pdHM9InVzZXJTcGFjZU9uVXNlIj48c3RvcCBvZmZzZXQ9IjAiIHN0b3AtY29sb3I9IiM3NzNhZGMiIC8+PHN0b3Agb2Zmc2V0PSIxIiBzdG9wLWNvbG9yPSIjYjc3YWY0IiAvPjwvbGluZWFyR3JhZGllbnQ+PGxpbmVhckdyYWRpZW50IGlkPSJhNWM5ZDFlNy0zM2ZiLTQzNTMtYjRiZC01ZDM3MzJhNTQ2MzQiIHgxPSIyLjg1IiB5MT0iMTEuODYiIHgyPSIyLjg1IiB5Mj0iOC41NyIgZ3JhZGllbnRVbml0cz0idXNlclNwYWNlT25Vc2UiPjxzdG9wIG9mZnNldD0iMCIgc3RvcC1jb2xvcj0iIzc3M2FkYyIgLz48c3RvcCBvZmZzZXQ9IjEiIHN0b3AtY29sb3I9IiNiNzdhZjQiIC8+PC9saW5lYXJHcmFkaWVudD48L2RlZnM+PHRpdGxlPkljb24tbWFuYWdlLTMxOTwvdGl0bGU+PHBvbHlnb24gcG9pbnRzPSIxNC43MyAxLjYyIDEwLjc0IDguNzIgNi41MiA0LjQyIDIuMTcgMTAuMDYgMy4xOSAxMC44NiA2LjY0IDYuNDEgMTEuMDIgMTAuODggMTUuODYgMi4yNyAxNC43MyAxLjYyIiBmaWxsPSIjYjc5NmY5IiAvPjxlbGxpcHNlIGN4PSI2LjU3IiBjeT0iNS40MSIgcng9IjEuNjQiIHJ5PSIxLjY1IiBmaWxsPSJ1cmwoI2UxZDczZjQ3LTc1MmEtNDE1OS05ODQxLWYwZTI5OGRiODUyMikiIC8+PGVsbGlwc2UgY3g9IjExLjAyIiBjeT0iOS41IiByeD0iMS42NCIgcnk9IjEuNjUiIGZpbGw9InVybCgjZThjNjQ0MGEtMjcwMS00NTA3LThkMDQtYzVkZWRkMThiY2YyKSIgLz48ZWxsaXBzZSBjeD0iMTUuMTUiIGN5PSIyLjE1IiByeD0iMS42NCIgcnk9IjEuNjUiIGZpbGw9InVybCgjYjQwMzg1YzYtNTIyYy00YjdkLWFmYTAtYzgyMTZmMzE0YmRmKSIgLz48ZWxsaXBzZSBjeD0iMi44NSIgY3k9IjEwLjIyIiByeD0iMS42NCIgcnk9IjEuNjUiIGZpbGw9InVybCgjYTVjOWQxZTctMzNmYi00MzUzLWI0YmQtNWQzNzMyYTU0NjM0KSIgLz48cmVjdCB4PSI1LjY3IiB5PSI5LjkyIiB3aWR0aD0iMi41OCIgaGVpZ2h0PSI3LjU4IiByeD0iMC4yOCIgZmlsbD0iIzAwNzhkNCIgLz48cmVjdCB4PSI5Ljc4IiB5PSIxMi41NCIgd2lkdGg9IjIuNTgiIGhlaWdodD0iNC45NiIgcng9IjAuMjgiIGZpbGw9IiMwMDViYTEiIC8+PHJlY3QgeD0iMTMuODkiIHk9IjcuMzgiIHdpZHRoPSIyLjU4IiBoZWlnaHQ9IjEwLjEyIiByeD0iMC4yOCIgZmlsbD0iIzAwNWJhMSIgLz48cmVjdCB4PSIxLjU2IiB5PSIxMi41NCIgd2lkdGg9IjIuNTgiIGhlaWdodD0iNC45NiIgcng9IjAuMjgiIGZpbGw9IiM1ZWEwZWYiIC8+PC9zdmc+;verticalAlign=top;labelPosition=center;verticalLabelPosition=bottom;align=center;fontStyle=5;labelBackgroundColor=default;" parent="UJXelhgqi3lZG2bOgomG-1" vertex="1">
          <mxGeometry x="110" y="46" width="50" height="50" as="geometry" />
        </mxCell>
        <mxCell id="J6pMH1p_7KSv0R4gjlsr-52" value="Grafana Dashboard" style="shape=image;aspect=fixed;image=data:image/svg+xml,PHN2ZyB4bWxucz0iaHR0cDovL3d3dy53My5vcmcvMjAwMC9zdmciIHdpZHRoPSIxOCIgaGVpZ2h0PSIxOCIgdmlld0JveD0iMCAwIDE4IDE4Ij48ZGVmcz48bGluZWFyR3JhZGllbnQgaWQ9ImE0Y2NkMGMzLWZkZTYtNDg3NS04MDBiLTMzM2RlMGEyNWNiOSIgeDE9IjkiIHkxPSIyIiB4Mj0iOSIgeTI9IjE2IiBncmFkaWVudFVuaXRzPSJ1c2VyU3BhY2VPblVzZSI+PHN0b3Agb2Zmc2V0PSIwLjE4IiBzdG9wLWNvbG9yPSIjNWVhMGVmIiAvPjxzdG9wIG9mZnNldD0iMSIgc3RvcC1jb2xvcj0iIzAwNzhkNCIgLz48L2xpbmVhckdyYWRpZW50PjwvZGVmcz48ZyBpZD0iZTA5NjIzODEtZGE1Yy00N2EyLWFlNGMtYWRmODUwMTE2ZjJiIj48Zz48cmVjdCB5PSIyIiB3aWR0aD0iMTgiIGhlaWdodD0iMTQiIHJ4PSIwLjc2IiBmaWxsPSJ1cmwoI2E0Y2NkMGMzLWZkZTYtNDg3NS04MDBiLTMzM2RlMGEyNWNiOSkiIC8+PHBhdGggZD0iTTguMzE3OCw0Ljgxcy0uMDAzOS4wMTU4LS4wMDg4LjA0MjVhMy45NzA1LDMuOTcwNSwwLDAsMC0xLjIxMy41NzNBMi44Mjk0LDIuODI5NCwwLDAsMCw0LjkzMzgsNS41YTMuMDkxOSwzLjA5MTksMCwwLDAsLjU1ODgsMi4wOTczQTUuMjQ5MSw1LjI0OTEsMCwwLDAsNS4yMTc4LDguNzg5YTIuNzk2NywyLjc5NjcsMCwwLDAtMS4zNTM3LDEuNTcyOSwyLjk3OTEsMi45NzkxLDAsMCwwLDEuODg4LDEuMDY0N2wuMDAyNy0uMDAyMWE0LjQwODYsNC40MDg2LDAsMCwwLC42Njg0LjkwMzMsMi4zNDc4LDIuMzQ3OCwwLDAsMCwuMDQ0NywxLjY2NSwyLjcwNzUsMi43MDc1LDAsMCwwLDEuNzQxOS0uNTMxLDQuMzg0OCw0LjM4NDgsMCwwLDAsMS41ODcxLjIyMjUsMS45NTIzLDEuOTUyMywwLDAsMCwxLjI2MjEuNzQ1OCwyLjAxMTQsMi4wMTE0LDAsMCwwLC42MDQ2LTEuMzNoMGwtLjAwMDYtLjAyNjdoMGwtLjAwMTYtLjAyNzhhMy41MTM4LDMuNTEzOCwwLDAsMCwuOTgzNS0xLjA0MTMsMS42LDEuNiwwLDAsMCwxLjEwMzUtLjQwMDcsMS42ODIyLDEuNjgyMiwwLDAsMC0uNTcxOS0xLjA2NTNoMGwtLjAxNTgtLjAxMTVoMGwtLjAxNDItLjAwOTJhMi44MDc5LDIuODA3OSwwLDAsMC0yLjg1MTktMy4xNTI5Yy0yLjgzNDYtLjEwMy0yLjUzMTIsNC44ODg1LjI4MzgsMy41MTE4LjE3MzEtLjQxNTktLjQ4MzkuMDIzOS0uNjYyMS0uMDY5NEExLjE2ODQsMS4xNjg0LDAsMCwxLDguODM0MSw5LjU4YTEuNDcsMS40NywwLDAsMSwyLjI1NTQtMS4xYzEuODgyOSwxLjA1MjkuNTM3NCwzLjk5MTYtMS40Mjg5LDMuODI3Mi4wMTM2LDAtLjAwMjIsMC0uMDAxNy0uMDAwNmEzLjA2NzMsMy4wNjczLDAsMCwxLTIuOTktMy4wNDg3QTMuMzA2NCwzLjMwNjQsMCwwLDEsOS44NjY2LDUuODQzOUMxMS43ODM1LDUuNjYyNSwxMy4yNCw3LjIyLDEzLjc4NTMsOC44MzExYTMuNDQwNiwzLjQ0MDYsMCwwLDAtMS4xMzQ0LTIuOTUsMS41ODEsMS41ODEsMCwwLDAtLjE4NTktMS4xMzQsMS42OCwxLjY4LDAsMCwwLTEuMDk0Mi4yODEzLDQuMjUzLDQuMjUzLDAsMCwwLTEuMDk0Ny0uMzAzNkEyLjAzMjUsMi4wMzI1LDAsMCwwLDkuMjksMy41N2EyLjE1NzQsMi4xNTc0LDAsMCwwLS45NzIsMS4yNCIgZmlsbD0iI2YyZjJmMiIgLz48L2c+PC9nPjwvc3ZnPg==;verticalAlign=top;labelPosition=center;verticalLabelPosition=bottom;align=center;fontStyle=5;labelBackgroundColor=default;" parent="UJXelhgqi3lZG2bOgomG-1" vertex="1">
          <mxGeometry x="580" y="46" width="50" height="50" as="geometry" />
        </mxCell>
        <mxCell id="J6pMH1p_7KSv0R4gjlsr-53" value="Service Health" style="shape=image;aspect=fixed;image=data:image/svg+xml,PHN2ZyBpZD0iZTZhZjY3MzUtYmQzZi00NGMyLTkxMGUtNGI4YjIyOGYzMzM2IiB4bWxucz0iaHR0cDovL3d3dy53My5vcmcvMjAwMC9zdmciIHdpZHRoPSIxOCIgaGVpZ2h0PSIxOCIgdmlld0JveD0iMCAwIDE4IDE4Ij48ZGVmcz48bGluZWFyR3JhZGllbnQgaWQ9ImY1ZTU1M2ZhLTc1NmEtNDAyOC1hYmE1LTcxOTU1NWY1ZDY5MyIgeDE9IjguNjYiIHkxPSIxNy4xMiIgeDI9IjguNjYiIHkyPSIxLjAzIiBncmFkaWVudFVuaXRzPSJ1c2VyU3BhY2VPblVzZSI+PHN0b3Agb2Zmc2V0PSIwIiBzdG9wLWNvbG9yPSIjMTk4OGQ5IiAvPjxzdG9wIG9mZnNldD0iMC4yMiIgc3RvcC1jb2xvcj0iIzIxOGRkYyIgLz48c3RvcCBvZmZzZXQ9IjAuNTYiIHN0b3AtY29sb3I9IiMzNzljZTUiIC8+PHN0b3Agb2Zmc2V0PSIwLjkiIHN0b3AtY29sb3I9IiM1NGFlZjAiIC8+PC9saW5lYXJHcmFkaWVudD48L2RlZnM+PHRpdGxlPkljb24tZ2VuZXJhbC00PC90aXRsZT48cGF0aCBkPSJNOC42NiwxNy4xMmM4LjE4LTUuODYsOC40Ni05LjI4LDguNDktMTAuMzVDMTcuMiw1LjI3LDE3LDEuMzYsMTMsMS4wNUE0LjI2LDQuMjYsMCwwLDAsOC42NiwzLjksNC4yOCw0LjI4LDAsMCwwLDQuMjcsMS4wNUMuMzIsMS4zNi4xMSw1LjI3LjE2LDYuNzdjMCwxLjA3LjMyLDQuNDksOC41LDEwLjM1IiBmaWxsPSJ1cmwoI2Y1ZTU1M2ZhLTc1NmEtNDAyOC1hYmE1LTcxOTU1NWY1ZDY5MykiIC8+PHBhdGggZD0iTTE3LjE1LDYuNzdDMTcuMiw1LjI3LDE3LDEuMzYsMTMsMS4wNUE0LjI2LDQuMjYsMCwwLDAsOC42NiwzLjksNC4yOCw0LjI4LDAsMCwwLDQuMjcsMS4wNUMuMzIsMS4zNi4xMSw1LjI3LjE2LDYuNzdjMCwxLjA3LjI0LDQuNDQsOC40MywxMC4zIiBmaWxsPSJub25lIiAvPjxwYXRoIGQ9Ik0xNy4xNSw2LjE4aC00YS4xNy4xNywwLDAsMC0uMTMuMDdMMTEuODEsOC4zNGEuMTYuMTYsMCwwLDEtLjI3LDBMOS44MSw1LjA1YS4zMS4zMSwwLDAsMC0uNTYsMEw3LjU5LDEwYS4xNi4xNiwwLDAsMS0uMjksMEw1Ljg4LDYuNzFhLjMxLjMxLDAsMCwwLS41NSwwTDMuMzksMTAuMmEuMTYuMTYsMCwwLDEtLjEzLjA4SDEuNDJhMTMsMTMsMCwwLDAsLjksMS4yMkg0YS4xMy4xMywwLDAsMCwuMTMtLjA4TDUuMzQsOS4xOWEuMTYuMTYsMCwwLDEsLjI4LDBsMS42NiwzLjg2YS4zMS4zMSwwLDAsMCwuNTgsMEw5LjYxLDcuODVhLjE1LjE1LDAsMCwxLC4yOCwwbDEuNDYsMi43N2EuMy4zLDAsMCwwLC41MywwbDEuODYtMy4xM2EuMTYuMTYsMCwwLDEsLjEzLS4wOEgxNy4xIiBmaWxsPSIjZmZmIiAvPjwvc3ZnPg==;verticalAlign=top;labelPosition=center;verticalLabelPosition=bottom;align=center;fontStyle=5;labelBackgroundColor=default;" parent="UJXelhgqi3lZG2bOgomG-1" vertex="1">
          <mxGeometry x="735" y="50" width="50" height="50" as="geometry" />
        </mxCell>
        <mxCell id="J6pMH1p_7KSv0R4gjlsr-69" value="AppInsights Dashboard" style="shape=image;aspect=fixed;image=data:image/svg+xml,PHN2ZyB4bWxucz0iaHR0cDovL3d3dy53My5vcmcvMjAwMC9zdmciIHdpZHRoPSIxOCIgaGVpZ2h0PSIxOCIgdmlld0JveD0iMCAwIDE4IDE4Ij48ZGVmcz48bGluZWFyR3JhZGllbnQgaWQ9ImZhYjY2YzllLThhZGUtNGIxNC04NWExLTg5YTNkZDdjZWFlOSIgeDE9IjguMTQxIiB5MT0iMS4wNDgiIHgyPSI4LjE0MSIgeTI9IjEzLjc0MSIgZ3JhZGllbnRVbml0cz0idXNlclNwYWNlT25Vc2UiPjxzdG9wIG9mZnNldD0iMCIgc3RvcC1jb2xvcj0iIzVlYTBlZiIgLz48c3RvcCBvZmZzZXQ9IjEiIHN0b3AtY29sb3I9IiMwMDc4ZDQiIC8+PC9saW5lYXJHcmFkaWVudD48L2RlZnM+PHJlY3QgeT0iMC42MDkiIHdpZHRoPSIxNi4yODIiIGhlaWdodD0iMTMuNjc4IiByeD0iMC43NjEiIGZpbGw9InVybCgjZmFiNjZjOWUtOGFkZS00YjE0LTg1YTEtODlhM2RkN2NlYWU5KSIgLz48ZWxsaXBzZSBjeD0iNi41MjQiIGN5PSI1LjMyOSIgcng9IjEuMTMxIiByeT0iMS4xMzciIGZpbGw9IiNmZmYiIC8+PGVsbGlwc2UgY3g9IjkuNjU5IiBjeT0iNy40NiIgcng9IjEuMTMxIiByeT0iMS4xMzciIGZpbGw9IiNmZmYiIC8+PGVsbGlwc2UgY3g9IjEyLjY5NSIgY3k9IjMuNDIyIiByeD0iMS4xMzEiIHJ5PSIxLjEzNyIgZmlsbD0iI2ZmZiIgLz48ZWxsaXBzZSBjeD0iMy41ODciIGN5PSI5LjUxMSIgcng9IjEuMTMxIiByeT0iMS4xMzciIGZpbGw9IiNmZmYiIC8+PHBvbHlnb24gcG9pbnRzPSIzLjk5NiA5Ljc5OCAzLjE3NyA5LjIyNCA2LjM5OCA0LjY0IDkuNTQ2IDYuNzc4IDEyLjI5NiAzLjEyMiAxMy4wOTUgMy43MjMgOS43NzMgOC4xNDEgNi42NSA2LjAyIDMuOTk2IDkuNzk4IiBmaWxsPSIjZmZmIiAvPjxwYXRoIGQ9Ik02LjkzMSwxNy4wOTJhMS4xNjksMS4xNjksMCwwLDEtMS4xNjgtMS4xNjdjLjItMy44ODksMi41MzktNi4zNjIsNS45NzQtNi4zNjJzNS43OSwyLjQ3Myw1Ljk3NCw2LjNBMS4xNywxLjE3LDAsMCwxLDE2LjYsMTcuMDlsLTkuNjcsMFoiIGZpbGw9IiNmZmYiIC8+PHBhdGggZD0iTTExLjczNyw5Ljg1YzMuNDI3LDAsNS41MiwyLjU0OSw1LjY4Nyw2LjAyOWEuODgxLjg4MSwwLDAsMS0uODM2LjkyNEg2LjkzMWEuODguODgsMCwwLDEtLjg4MS0uODhjMC0uMDE1LDAtLjAzLDAtLjA0NkM2LjIyNywxMi40LDguMzE2LDkuODUsMTEuNzM3LDkuODVtMC0uNTc1Yy0zLjYsMC02LjA1OCwyLjU4MS02LjI2LDYuNTc0di4wNzZhMS40NTgsMS40NTgsMCwwLDAsMS40NTYsMS40NTRoOS42MjZsLjA1OSwwQTEuNDU3LDEuNDU3LDAsMCwwLDE4LDE1Ljg1Yy0uMTg5LTMuOTMyLTIuNzA1LTYuNTc1LTYuMjYxLTYuNTc1WiIgZmlsbD0iIzAwNzhkNCIgLz48cGF0aCBkPSJNMTQuMzY4LDEyLjI3MmEzLjk5MSwzLjk5MSwwLDAsMC0yLjM4Mi0xLjAxNHYxLjg1MWEyLjIyNCwyLjIyNCwwLDAsMSwxLjEwNi40NzJaIiBmaWxsPSIjNTBlNmZmIiAvPjxwYXRoIGQ9Ik05LjA0NCwxMi4yNzJsMS4yNzYsMS4zMDlhMi4yMjQsMi4yMjQsMCwwLDEsMS4xMDYtLjQ3MlYxMS4yNThBMy45OTQsMy45OTQsMCwwLDAsOS4wNDQsMTIuMjcyWiIgZmlsbD0iIzUwZTZmZiIgLz48cGF0aCBkPSJNMTMuNSwxMy45OTNhMi4zNSwyLjM1LDAsMCwxLC40NjIsMS4xMzZoMS44YTQuMjMxLDQuMjMxLDAsMCwwLS45ODctMi40NDVaIiBmaWxsPSIjMzJiZWRkIiAvPjxwYXRoIGQ9Ik05LjkxNywxMy45OTMsOC42NDEsMTIuNjg0YTQuMjIzLDQuMjIzLDAsMCwwLS45ODYsMi40NDVoMS44QTIuMzUyLDIuMzUyLDAsMCwxLDkuOTE3LDEzLjk5M1oiIGZpbGw9IiM1MGU2ZmYiIC8+PHBhdGggZD0iTTE0Ljc3MywxMy41MjZhLjQuNCwwLDAsMC0uMzYzLS4yMzMuMzg4LjM4OCwwLDAsMC0uMTY3LjAzOGwtMi43NzIsMS4zLjMzNC43MjYsMi43NzUtMS4zQS40LjQsMCwwLDAsMTQuNzczLDEzLjUyNloiIGZpbGw9IiNlNjIzMjMiIC8+PGNpcmNsZSBjeD0iMTEuNzM3IiBjeT0iMTQuOTYzIiByPSIwLjk1NCIgZmlsbD0iIzRmNGY0ZiIgLz48L3N2Zz4=;verticalAlign=top;labelPosition=center;verticalLabelPosition=bottom;align=center;fontStyle=5;labelBackgroundColor=default;" parent="UJXelhgqi3lZG2bOgomG-1" vertex="1">
          <mxGeometry x="900" y="50" width="50" height="50" as="geometry" />
        </mxCell>
        <mxCell id="J6pMH1p_7KSv0R4gjlsr-81" value="Alerts" style="shape=image;aspect=fixed;image=data:image/svg+xml,PHN2ZyBpZD0iYTlmNTZiNGUtMmE1MS00NDcxLTk0ODgtZDQ2MTQwOGFlNGViIiB4bWxucz0iaHR0cDovL3d3dy53My5vcmcvMjAwMC9zdmciIHdpZHRoPSIxOCIgaGVpZ2h0PSIxOCIgdmlld0JveD0iMCAwIDE4IDE4Ij48ZGVmcz48bGluZWFyR3JhZGllbnQgaWQ9ImU0ZTFlNDk0LTIxZjEtNGU5Yy1hNmZhLTA5OTNlZmZmMDhkMyIgeDE9IjkiIHkxPSIxNy4yIiB4Mj0iOSIgeTI9Ii0zLjI4IiBncmFkaWVudFVuaXRzPSJ1c2VyU3BhY2VPblVzZSI+PHN0b3Agb2Zmc2V0PSIwIiBzdG9wLWNvbG9yPSIjNWU5NjI0IiAvPjxzdG9wIG9mZnNldD0iMC4xOCIgc3RvcC1jb2xvcj0iIzYyOWMyNSIgLz48c3RvcCBvZmZzZXQ9IjAuNDQiIHN0b3AtY29sb3I9IiM2ZGFlMmEiIC8+PHN0b3Agb2Zmc2V0PSIwLjczIiBzdG9wLWNvbG9yPSIjN2ZjYjMwIiAvPjxzdG9wIG9mZnNldD0iMC44MiIgc3RvcC1jb2xvcj0iIzg2ZDYzMyIgLz48L2xpbmVhckdyYWRpZW50PjwvZGVmcz48Zz48cGF0aCBkPSJNMTcuNSwyLjVWMTMuMzNhLjU4LjU4LDAsMCwxLS41OC41OEgxMi40YS4xNS4xNSwwLDAsMC0uMTUuMTRWMTUuOGEuMjguMjgsMCwwLDEtLjQ1LjIzTDkuMDgsMTMuOTRsLS4wOSwwSDEuMDhhLjU4LjU4LDAsMCwxLS41OC0uNThWMi41YS41OC41OCwwLDAsMSwuNTgtLjU5SDE2LjkyQS41OC41OCwwLDAsMSwxNy41LDIuNVoiIGZpbGw9InVybCgjZTRlMWU0OTQtMjFmMS00ZTljLWE2ZmEtMDk5M2VmZmYwOGQzKSIgLz48cGF0aCBkPSJNOS41NCw5LjYzSDguMzhBLjM2LjM2LDAsMCwxLDgsOS4yOUw3LjgsMy40M2EuMzUuMzUsMCwwLDEsLjM1LS4zNmgxLjdhLjM1LjM1LDAsMCwxLC4zNS4zN0w5Ljg5LDkuM0EuMzUuMzUsMCwwLDEsOS41NCw5LjYzWiIgZmlsbD0iI2ZmZiIgLz48cmVjdCB4PSI4LjEzIiB5PSIxMC42MiIgd2lkdGg9IjEuNjkiIGhlaWdodD0iMS42OSIgcng9IjAuNjEiIGZpbGw9IiNmZmYiIC8+PC9nPjwvc3ZnPg==;verticalAlign=top;labelPosition=center;verticalLabelPosition=bottom;align=center;fontStyle=5;labelBackgroundColor=default;" parent="UJXelhgqi3lZG2bOgomG-1" vertex="1">
          <mxGeometry x="264" y="50" width="50" height="50" as="geometry" />
        </mxCell>
        <mxCell id="SqgddykTs4HYqL3Znm7L-15" value="" style="shape=flexArrow;endArrow=classic;html=1;rounded=0;sketch=1;strokeColor=#3333FF;fillColor=#0000FF;" parent="1" edge="1">
          <mxGeometry width="50" height="50" relative="1" as="geometry">
            <mxPoint x="430" y="1050" as="sourcePoint" />
            <mxPoint x="510" y="1050" as="targetPoint" />
          </mxGeometry>
        </mxCell>
        <mxCell id="SqgddykTs4HYqL3Znm7L-18" value="" style="shape=flexArrow;endArrow=classic;html=1;rounded=0;sketch=1;strokeColor=#3333FF;fillColor=#0000FF;" parent="1" edge="1">
          <mxGeometry width="50" height="50" relative="1" as="geometry">
            <mxPoint x="740" y="600" as="sourcePoint" />
            <mxPoint x="820" y="600" as="targetPoint" />
          </mxGeometry>
        </mxCell>
        <mxCell id="SqgddykTs4HYqL3Znm7L-20" value="" style="shape=flexArrow;endArrow=classic;html=1;rounded=0;sketch=1;strokeColor=#3333FF;fillColor=#0000FF;" parent="1" edge="1">
          <mxGeometry width="50" height="50" relative="1" as="geometry">
            <mxPoint x="740" y="849.9999999999999" as="sourcePoint" />
            <mxPoint x="820" y="849.9999999999999" as="targetPoint" />
          </mxGeometry>
        </mxCell>
        <mxCell id="SqgddykTs4HYqL3Znm7L-21" value="" style="shape=flexArrow;endArrow=classic;html=1;rounded=0;sketch=1;strokeColor=#3333FF;fillColor=#0000FF;" parent="1" edge="1">
          <mxGeometry width="50" height="50" relative="1" as="geometry">
            <mxPoint x="743" y="1195" as="sourcePoint" />
            <mxPoint x="823" y="1195" as="targetPoint" />
          </mxGeometry>
        </mxCell>
        <mxCell id="SqgddykTs4HYqL3Znm7L-22" value="" style="shape=flexArrow;endArrow=classic;html=1;rounded=0;sketch=1;strokeColor=#3333FF;fillColor=#0000FF;startArrow=block;" parent="1" edge="1">
          <mxGeometry width="50" height="50" relative="1" as="geometry">
            <mxPoint x="1340" y="603.15" as="sourcePoint" />
            <mxPoint x="1420" y="603.15" as="targetPoint" />
          </mxGeometry>
        </mxCell>
        <mxCell id="SqgddykTs4HYqL3Znm7L-23" value="" style="shape=flexArrow;endArrow=classic;html=1;rounded=0;sketch=1;strokeColor=#3333FF;fillColor=#0000CC;startArrow=block;" parent="1" edge="1">
          <mxGeometry width="50" height="50" relative="1" as="geometry">
            <mxPoint x="1340" y="850.0000000000001" as="sourcePoint" />
            <mxPoint x="1420" y="850.0000000000001" as="targetPoint" />
          </mxGeometry>
        </mxCell>
        <mxCell id="SqgddykTs4HYqL3Znm7L-24" value="" style="shape=flexArrow;endArrow=classic;html=1;rounded=0;sketch=1;strokeColor=#3333FF;fillColor=#0000FF;startArrow=block;" parent="1" edge="1">
          <mxGeometry width="50" height="50" relative="1" as="geometry">
            <mxPoint x="1340" y="1198" as="sourcePoint" />
            <mxPoint x="1420" y="1198" as="targetPoint" />
          </mxGeometry>
        </mxCell>
        <mxCell id="iD_WnmKbnR4dIF5asDQz-8" value="" style="group" parent="1" vertex="1" connectable="0">
          <mxGeometry x="-600" y="210" width="790" height="440" as="geometry" />
        </mxCell>
        <mxCell id="iD_WnmKbnR4dIF5asDQz-7" value="GITHUB" style="group;fontStyle=1;horizontal=1;verticalAlign=bottom;labelPosition=center;verticalLabelPosition=top;align=center;fontSize=14;" parent="iD_WnmKbnR4dIF5asDQz-8" vertex="1" connectable="0">
          <mxGeometry x="90" y="60" width="626" height="330" as="geometry" />
        </mxCell>
        <mxCell id="J6pMH1p_7KSv0R4gjlsr-63" value="" style="rounded=0;whiteSpace=wrap;html=1;labelBackgroundColor=default;fillStyle=auto;strokeColor=#000000;strokeWidth=1;fontSize=12;fontColor=#000000;fillColor=#C8DEB1;shadow=0;sketch=1;curveFitting=1;jiggle=2;verticalAlign=bottom;fontStyle=0" parent="iD_WnmKbnR4dIF5asDQz-7" vertex="1">
          <mxGeometry x="105.74324324324324" width="520.2567567567568" height="264.96659815005137" as="geometry" />
        </mxCell>
        <mxCell id="6eafPOhumq8tuQs-aHr3-18" value="Advanced Security" style="dashed=0;outlineConnect=0;html=1;align=center;labelPosition=center;verticalLabelPosition=bottom;verticalAlign=top;shape=mxgraph.weblogos.github;labelBackgroundColor=default;sketch=0;fillStyle=auto;strokeColor=#000000;strokeWidth=1;fontSize=12;fontColor=#000000;fillColor=#C8DEB1;aspect=fixed;fontStyle=5" parent="iD_WnmKbnR4dIF5asDQz-7" vertex="1">
          <mxGeometry x="308.77027027027026" y="10.552965116279069" width="52.64046197360152" height="52.64046197360152" as="geometry" />
        </mxCell>
        <mxCell id="6eafPOhumq8tuQs-aHr3-23" value="Codespaces" style="dashed=0;outlineConnect=0;html=1;align=center;labelPosition=center;verticalLabelPosition=bottom;verticalAlign=top;shape=mxgraph.weblogos.github;labelBackgroundColor=default;sketch=0;fillStyle=auto;strokeColor=#000000;strokeWidth=1;fontSize=12;fontColor=#000000;fillColor=#C8DEB1;aspect=fixed;fontStyle=5" parent="iD_WnmKbnR4dIF5asDQz-7" vertex="1">
          <mxGeometry x="509.68243243243245" y="10.552965116279069" width="52.64046197360152" height="52.64046197360152" as="geometry" />
        </mxCell>
        <mxCell id="6eafPOhumq8tuQs-aHr3-28" value="" style="rounded=1;whiteSpace=wrap;html=1;strokeWidth=2;fillWeight=4;hachureGap=8;hachureAngle=45;fillColor=#d5e8d4;sketch=1;strokeColor=#82b366;" parent="iD_WnmKbnR4dIF5asDQz-7" vertex="1">
          <mxGeometry x="249.55405405405406" y="105.98663926002054" width="348.9527027027027" height="127.18396711202465" as="geometry" />
        </mxCell>
        <mxCell id="6eafPOhumq8tuQs-aHr3-36" style="edgeStyle=orthogonalEdgeStyle;rounded=0;orthogonalLoop=1;jettySize=auto;html=1;entryX=0;entryY=0.5;entryDx=0;entryDy=0;fontSize=10;" parent="iD_WnmKbnR4dIF5asDQz-7" source="6eafPOhumq8tuQs-aHr3-30" target="6eafPOhumq8tuQs-aHr3-35" edge="1">
          <mxGeometry relative="1" as="geometry" />
        </mxCell>
        <mxCell id="6eafPOhumq8tuQs-aHr3-30" value="Repository" style="dashed=0;outlineConnect=0;html=1;align=center;labelPosition=center;verticalLabelPosition=bottom;verticalAlign=top;shape=mxgraph.weblogos.github;labelBackgroundColor=default;sketch=0;fillStyle=auto;strokeColor=#000000;strokeWidth=1;fontSize=12;fontColor=#000000;fillColor=#C8DEB1;aspect=fixed;fontStyle=5" parent="iD_WnmKbnR4dIF5asDQz-7" vertex="1">
          <mxGeometry x="308.77027027027026" y="127.18904329692393" width="52.64046197360152" height="52.64046197360152" as="geometry" />
        </mxCell>
        <mxCell id="6eafPOhumq8tuQs-aHr3-32" value="Repository" style="dashed=0;outlineConnect=0;html=1;align=center;labelPosition=center;verticalLabelPosition=bottom;verticalAlign=top;shape=mxgraph.weblogos.github;labelBackgroundColor=default;sketch=0;fillStyle=auto;strokeColor=#000000;strokeWidth=1;fontSize=12;fontColor=#000000;fillColor=#C8DEB1;aspect=fixed;fontStyle=5" parent="iD_WnmKbnR4dIF5asDQz-7" vertex="1">
          <mxGeometry x="509.68243243243245" y="127.18904329692393" width="52.64046197360152" height="52.64046197360152" as="geometry" />
        </mxCell>
        <mxCell id="6eafPOhumq8tuQs-aHr3-37" style="edgeStyle=orthogonalEdgeStyle;rounded=0;orthogonalLoop=1;jettySize=auto;html=1;fontSize=10;" parent="iD_WnmKbnR4dIF5asDQz-7" source="6eafPOhumq8tuQs-aHr3-35" target="6eafPOhumq8tuQs-aHr3-32" edge="1">
          <mxGeometry relative="1" as="geometry" />
        </mxCell>
        <mxCell id="6eafPOhumq8tuQs-aHr3-35" value="Build &lt;br style=&quot;font-size: 10px;&quot;&gt;&amp;amp; Push" style="ellipse;whiteSpace=wrap;html=1;aspect=fixed;rounded=0;shadow=0;sketch=1;fontSize=10;" parent="iD_WnmKbnR4dIF5asDQz-7" vertex="1">
          <mxGeometry x="414.51351351351354" y="133.5961587872559" width="39.85462837837838" height="39.85462837837838" as="geometry" />
        </mxCell>
        <mxCell id="6eafPOhumq8tuQs-aHr3-31" style="edgeStyle=orthogonalEdgeStyle;rounded=0;orthogonalLoop=1;jettySize=auto;html=1;" parent="iD_WnmKbnR4dIF5asDQz-7" source="6eafPOhumq8tuQs-aHr3-18" target="6eafPOhumq8tuQs-aHr3-30" edge="1">
          <mxGeometry relative="1" as="geometry" />
        </mxCell>
        <mxCell id="6eafPOhumq8tuQs-aHr3-34" style="edgeStyle=orthogonalEdgeStyle;rounded=0;orthogonalLoop=1;jettySize=auto;html=1;fontSize=14;" parent="iD_WnmKbnR4dIF5asDQz-7" source="6eafPOhumq8tuQs-aHr3-23" target="6eafPOhumq8tuQs-aHr3-32" edge="1">
          <mxGeometry relative="1" as="geometry" />
        </mxCell>
        <mxCell id="6eafPOhumq8tuQs-aHr3-39" style="edgeStyle=orthogonalEdgeStyle;rounded=0;orthogonalLoop=1;jettySize=auto;html=1;fontSize=10;" parent="iD_WnmKbnR4dIF5asDQz-7" source="6eafPOhumq8tuQs-aHr3-7" target="6eafPOhumq8tuQs-aHr3-30" edge="1">
          <mxGeometry relative="1" as="geometry" />
        </mxCell>
        <mxCell id="6eafPOhumq8tuQs-aHr3-7" value="Commit and &lt;br&gt;push local &lt;br&gt;branch to &lt;br&gt;Github" style="dashed=0;outlineConnect=0;html=1;align=center;labelPosition=center;verticalLabelPosition=bottom;verticalAlign=top;shape=mxgraph.weblogos.github;labelBackgroundColor=default;sketch=0;fillStyle=auto;strokeColor=#000000;strokeWidth=1;fontSize=12;fontColor=#000000;fillColor=#C8DEB1;aspect=fixed;fontStyle=5" parent="iD_WnmKbnR4dIF5asDQz-7" vertex="1">
          <mxGeometry x="154.38513513513513" y="127.18396711202466" width="52.87162162162162" height="52.87162162162162" as="geometry" />
        </mxCell>
        <mxCell id="6eafPOhumq8tuQs-aHr3-3" value="&lt;b&gt;&lt;u&gt;Edit &amp;amp; Deploy&lt;br&gt;Locally&lt;/u&gt;&lt;/b&gt;" style="verticalLabelPosition=bottom;html=1;verticalAlign=top;align=center;strokeColor=none;fillColor=#00BEF2;shape=mxgraph.azure.visual_studio_online;" parent="iD_WnmKbnR4dIF5asDQz-7" vertex="1">
          <mxGeometry x="-14.804054054054054" y="133.80813206577594" width="52.87162162162162" height="39.744989722507704" as="geometry" />
        </mxCell>
        <mxCell id="6eafPOhumq8tuQs-aHr3-12" style="edgeStyle=orthogonalEdgeStyle;rounded=0;orthogonalLoop=1;jettySize=auto;html=1;" parent="iD_WnmKbnR4dIF5asDQz-7" source="6eafPOhumq8tuQs-aHr3-3" target="6eafPOhumq8tuQs-aHr3-7" edge="1">
          <mxGeometry relative="1" as="geometry" />
        </mxCell>
        <mxCell id="6eafPOhumq8tuQs-aHr3-47" value="&lt;b&gt;&lt;u&gt;MS DevBox&lt;/u&gt;&lt;/b&gt;" style="sketch=0;html=1;aspect=fixed;strokeColor=none;shadow=0;align=center;verticalAlign=top;fillColor=#3B8DF1;shape=mxgraph.gcp2.cloud_computer;rounded=0;fontSize=10;labelPosition=center;verticalLabelPosition=bottom;" parent="iD_WnmKbnR4dIF5asDQz-7" vertex="1">
          <mxGeometry x="-27" y="20" width="77.27" height="68" as="geometry" />
        </mxCell>
        <mxCell id="6eafPOhumq8tuQs-aHr3-41" value="" style="rounded=0;whiteSpace=wrap;html=1;labelBackgroundColor=default;sketch=1;fillStyle=auto;strokeColor=#000000;strokeWidth=1;fontSize=12;fontColor=#000000;fillColor=#C8DEB1;" parent="iD_WnmKbnR4dIF5asDQz-8" vertex="1">
          <mxGeometry x="750" y="60" width="250" height="260" as="geometry" />
        </mxCell>
        <mxCell id="6eafPOhumq8tuQs-aHr3-46" value="&lt;b&gt;&lt;u&gt;Boards&lt;/u&gt;&lt;/b&gt;" style="sketch=0;aspect=fixed;html=1;points=[];align=center;image;fontSize=12;image=img/lib/mscae/Azure_Boards.svg;" parent="iD_WnmKbnR4dIF5asDQz-8" vertex="1">
          <mxGeometry x="801" y="90" width="50" height="50" as="geometry" />
        </mxCell>
        <mxCell id="6eafPOhumq8tuQs-aHr3-45" value="&lt;b&gt;&lt;u&gt;Test plans&lt;/u&gt;&lt;/b&gt;" style="sketch=0;aspect=fixed;html=1;points=[];align=center;image;fontSize=12;image=img/lib/mscae/Azure_Test_Plans.svg;" parent="iD_WnmKbnR4dIF5asDQz-8" vertex="1">
          <mxGeometry x="801" y="200" width="45" height="50" as="geometry" />
        </mxCell>
        <mxCell id="6eafPOhumq8tuQs-aHr3-42" value="Container Registry" style="aspect=fixed;html=1;points=[];align=center;image;fontSize=12;image=img/lib/azure2/containers/Container_Registries.svg;labelBackgroundColor=default;sketch=0;fillStyle=auto;strokeColor=#000000;strokeWidth=1;fontColor=#000000;fillColor=#C8DEB1;fontStyle=5" parent="iD_WnmKbnR4dIF5asDQz-8" vertex="1">
          <mxGeometry x="910" y="200" width="55.74" height="50" as="geometry" />
        </mxCell>
        <mxCell id="6eafPOhumq8tuQs-aHr3-49" value="&lt;b&gt;&lt;u&gt;Load testing&lt;/u&gt;&lt;/b&gt;" style="aspect=fixed;html=1;points=[];align=center;image;fontSize=12;image=img/lib/azure2/general/Load_Test.svg;rounded=0;shadow=0;sketch=1;" parent="iD_WnmKbnR4dIF5asDQz-8" vertex="1">
          <mxGeometry x="897.74" y="82" width="68" height="66" as="geometry" />
        </mxCell>
        <mxCell id="iD_WnmKbnR4dIF5asDQz-12" value="" style="group" parent="1" vertex="1" connectable="0">
          <mxGeometry x="80" y="40" width="400" height="160" as="geometry" />
        </mxCell>
        <mxCell id="iD_WnmKbnR4dIF5asDQz-6" value="SECURITY" style="rounded=0;whiteSpace=wrap;html=1;dashed=1;labelBackgroundColor=default;sketch=1;fillStyle=solid;strokeColor=#660033;fontColor=#000000;fillColor=#FFFF66;opacity=10;strokeWidth=3;fontSize=14;verticalAlign=bottom;labelPosition=center;verticalLabelPosition=top;align=center;fontStyle=1" parent="iD_WnmKbnR4dIF5asDQz-12" vertex="1">
          <mxGeometry x="-40" width="400" height="160" as="geometry" />
        </mxCell>
        <mxCell id="iD_WnmKbnR4dIF5asDQz-11" value="" style="group" parent="iD_WnmKbnR4dIF5asDQz-12" vertex="1" connectable="0">
          <mxGeometry y="20" width="320" height="120" as="geometry" />
        </mxCell>
        <mxCell id="iD_WnmKbnR4dIF5asDQz-3" value="" style="rounded=0;whiteSpace=wrap;html=1;labelBackgroundColor=default;sketch=1;fillStyle=auto;strokeColor=#000000;strokeWidth=1;fontSize=12;fontColor=#000000;fillColor=#E1D5E7;" parent="iD_WnmKbnR4dIF5asDQz-11" vertex="1">
          <mxGeometry width="320" height="120" as="geometry" />
        </mxCell>
        <mxCell id="iD_WnmKbnR4dIF5asDQz-9" value="Sentinel" style="aspect=fixed;html=1;points=[];align=center;image;fontSize=12;image=img/lib/azure2/security/Azure_Sentinel.svg;fillColor=#33FFFF;fontStyle=5" parent="iD_WnmKbnR4dIF5asDQz-11" vertex="1">
          <mxGeometry x="47" y="26" width="56.00000000000001" height="68" as="geometry" />
        </mxCell>
        <mxCell id="iD_WnmKbnR4dIF5asDQz-10" value="Defender" style="aspect=fixed;html=1;points=[];align=center;image;fontSize=12;image=img/lib/azure2/security/Azure_Defender.svg;fillColor=#33FFFF;fontStyle=5" parent="iD_WnmKbnR4dIF5asDQz-11" vertex="1">
          <mxGeometry x="210" y="26" width="56.00000000000001" height="68" as="geometry" />
        </mxCell>
        <mxCell id="iD_WnmKbnR4dIF5asDQz-14" value="" style="shape=image;aspect=fixed;image=data:image/svg+xml,PHN2ZyB3aWR0aD0iMTUwIiBoZWlnaHQ9IjE1MCIgdmlld0JveD0iMCAwIDk2IDk2IiB4bWxucz0iaHR0cDovL3d3dy53My5vcmcvMjAwMC9zdmciPg0KICAgIDxkZWZzPg0KICAgICAgICA8bGluZWFyR3JhZGllbnQgaWQ9ImUzOTljMTlmLWI2OGYtNDI5ZC1iMTc2LTE4YzIxMTdmZjczYyIgeDE9Ii0xMDMyLjE3MiIgeDI9Ii0xMDU5LjIxMyIgeTE9IjE0NS4zMTIiIHkyPSI2NS40MjYiIGdyYWRpZW50VHJhbnNmb3JtPSJtYXRyaXgoMSAwIDAgLTEgMTA3NSAxNTgpIiBncmFkaWVudFVuaXRzPSJ1c2VyU3BhY2VPblVzZSI+DQogICAgICAgICAgICA8c3RvcCBvZmZzZXQ9IjAiIHN0b3AtY29sb3I9IiMxMTRhOGIiLz4NCiAgICAgICAgICAgIDxzdG9wIG9mZnNldD0iMSIgc3RvcC1jb2xvcj0iIzA2NjliYyIvPg0KICAgICAgICA8L2xpbmVhckdyYWRpZW50Pg0KICAgICAgICA8bGluZWFyR3JhZGllbnQgaWQ9ImFjMmE2ZmMyLWNhNDgtNDMyNy05YTNjLWQ0ZGNjMzI1NmUxNSIgeDE9Ii0xMDIzLjcyNSIgeDI9Ii0xMDI5Ljk4IiB5MT0iMTA4LjA4MyIgeTI9IjEwNS45NjgiIGdyYWRpZW50VHJhbnNmb3JtPSJtYXRyaXgoMSAwIDAgLTEgMTA3NSAxNTgpIiBncmFkaWVudFVuaXRzPSJ1c2VyU3BhY2VPblVzZSI+DQogICAgICAgICAgICA8c3RvcCBvZmZzZXQ9IjAiIHN0b3Atb3BhY2l0eT0iLjMiLz4NCiAgICAgICAgICAgIDxzdG9wIG9mZnNldD0iLjA3MSIgc3RvcC1vcGFjaXR5PSIuMiIvPg0KICAgICAgICAgICAgPHN0b3Agb2Zmc2V0PSIuMzIxIiBzdG9wLW9wYWNpdHk9Ii4xIi8+DQogICAgICAgICAgICA8c3RvcCBvZmZzZXQ9Ii42MjMiIHN0b3Atb3BhY2l0eT0iLjA1Ii8+DQogICAgICAgICAgICA8c3RvcCBvZmZzZXQ9IjEiIHN0b3Atb3BhY2l0eT0iMCIvPg0KICAgICAgICA8L2xpbmVhckdyYWRpZW50Pg0KICAgICAgICA8bGluZWFyR3JhZGllbnQgaWQ9ImE3ZmVlOTcwLWE3ODQtNGJiMS1hZjhkLTYzZDE4ZTVmN2RiOSIgeDE9Ii0xMDI3LjE2NSIgeDI9Ii05OTcuNDgyIiB5MT0iMTQ3LjY0MiIgeTI9IjY4LjU2MSIgZ3JhZGllbnRUcmFuc2Zvcm09Im1hdHJpeCgxIDAgMCAtMSAxMDc1IDE1OCkiIGdyYWRpZW50VW5pdHM9InVzZXJTcGFjZU9uVXNlIj4NCiAgICAgICAgICAgIDxzdG9wIG9mZnNldD0iMCIgc3RvcC1jb2xvcj0iIzNjY2JmNCIvPg0KICAgICAgICAgICAgPHN0b3Agb2Zmc2V0PSIxIiBzdG9wLWNvbG9yPSIjMjg5MmRmIi8+DQogICAgICAgIDwvbGluZWFyR3JhZGllbnQ+DQogICAgPC9kZWZzPg0KICAgIDxwYXRoIGZpbGw9InVybCgjZTM5OWMxOWYtYjY4Zi00MjlkLWIxNzYtMThjMjExN2ZmNzNjKSIgZD0iTTMzLjMzOCA2LjU0NGgyNi4wMzhsLTI3LjAzIDgwLjA4N2E0LjE1MiA0LjE1MiAwIDAgMS0zLjkzMyAyLjgyNEg4LjE0OWE0LjE0NSA0LjE0NSAwIDAgMS0zLjkyOC01LjQ3TDI5LjQwNCA5LjM2OGE0LjE1MiA0LjE1MiAwIDAgMSAzLjkzNC0yLjgyNXoiLz4NCiAgICA8cGF0aCBmaWxsPSIjMDA3OGQ0IiBkPSJNNzEuMTc1IDYwLjI2MWgtNDEuMjlhMS45MTEgMS45MTEgMCAwIDAtMS4zMDUgMy4zMDlsMjYuNTMyIDI0Ljc2NGE0LjE3MSA0LjE3MSAwIDAgMCAyLjg0NiAxLjEyMWgyMy4zOHoiLz4NCiAgICA8cGF0aCBmaWxsPSJ1cmwoI2FjMmE2ZmMyLWNhNDgtNDMyNy05YTNjLWQ0ZGNjMzI1NmUxNSkiIGQ9Ik0zMy4zMzggNi41NDRhNC4xMTggNC4xMTggMCAwIDAtMy45NDMgMi44NzlMNC4yNTIgODMuOTE3YTQuMTQgNC4xNCAwIDAgMCAzLjkwOCA1LjUzOGgyMC43ODdhNC40NDMgNC40NDMgMCAwIDAgMy40MS0yLjlsNS4wMTQtMTQuNzc3IDE3LjkxIDE2LjcwNWE0LjIzNyA0LjIzNyAwIDAgMCAyLjY2Ni45NzJIODEuMjRMNzEuMDI0IDYwLjI2MWwtMjkuNzgxLjAwN0w1OS40NyA2LjU0NHoiLz4NCiAgICA8cGF0aCBmaWxsPSJ1cmwoI2E3ZmVlOTcwLWE3ODQtNGJiMS1hZjhkLTYzZDE4ZTVmN2RiOSkiIGQ9Ik02Ni41OTUgOS4zNjRhNC4xNDUgNC4xNDUgMCAwIDAtMy45MjgtMi44MkgzMy42NDhhNC4xNDYgNC4xNDYgMCAwIDEgMy45MjggMi44MmwyNS4xODQgNzQuNjJhNC4xNDYgNC4xNDYgMCAwIDEtMy45MjggNS40NzJoMjkuMDJhNC4xNDYgNC4xNDYgMCAwIDAgMy45MjctNS40NzJ6Ii8+DQo8L3N2Zz4=;" parent="1" vertex="1">
          <mxGeometry x="280" y="1450" width="60" height="60" as="geometry" />
        </mxCell>
        <mxCell id="SqgddykTs4HYqL3Znm7L-14" value="" style="shape=flexArrow;endArrow=classic;html=1;rounded=0;sketch=1;strokeColor=#3333FF;fillColor=#0000FF;" parent="1" edge="1">
          <mxGeometry width="50" height="50" relative="1" as="geometry">
            <mxPoint x="430" y="870" as="sourcePoint" />
            <mxPoint x="510" y="870" as="targetPoint" />
          </mxGeometry>
        </mxCell>
        <mxCell id="lu38r3Qyk8rX4jfRfJHu-5" value="" style="group" parent="1" vertex="1" connectable="0">
          <mxGeometry x="20" y="680" width="420" height="720" as="geometry" />
        </mxCell>
        <mxCell id="jxoymsFl4kqGbWP8mDqd-24" value="FRONT END" style="rounded=0;whiteSpace=wrap;html=1;labelBackgroundColor=none;sketch=1;strokeColor=#660033;strokeWidth=3;fontColor=#000000;fillColor=#99CCFF;glass=0;shadow=0;dashed=1;verticalAlign=bottom;labelPosition=center;verticalLabelPosition=top;align=center;fontSize=15;fontStyle=1;opacity=10;fillStyle=solid;" parent="lu38r3Qyk8rX4jfRfJHu-5" vertex="1">
          <mxGeometry width="420" height="720" as="geometry" />
        </mxCell>
        <mxCell id="jxoymsFl4kqGbWP8mDqd-28" style="rounded=0;sketch=1;orthogonalLoop=1;jettySize=auto;html=1;exitX=1;exitY=0.5;exitDx=0;exitDy=0;entryX=0;entryY=0.5;entryDx=0;entryDy=0;strokeColor=#0000FF;strokeWidth=1;fontColor=#000000;endArrow=block;endFill=1;" parent="lu38r3Qyk8rX4jfRfJHu-5" source="3Wsy6diL1BG13nHRlo5x-4" target="3Wsy6diL1BG13nHRlo5x-10" edge="1">
          <mxGeometry relative="1" as="geometry" />
        </mxCell>
        <mxCell id="jxoymsFl4kqGbWP8mDqd-30" value="" style="group" parent="lu38r3Qyk8rX4jfRfJHu-5" vertex="1" connectable="0">
          <mxGeometry x="220" y="203.5" width="172.95" height="136.99999999999997" as="geometry" />
        </mxCell>
        <mxCell id="3Wsy6diL1BG13nHRlo5x-45" value="Rewards App" style="rounded=0;whiteSpace=wrap;html=1;glass=0;sketch=1;fillStyle=auto;strokeWidth=1;fillColor=#99FF99;gradientColor=none;verticalAlign=top;labelPosition=center;verticalLabelPosition=bottom;align=center;" parent="jxoymsFl4kqGbWP8mDqd-30" vertex="1">
          <mxGeometry y="16.999999999999996" width="168" height="119.99999999999999" as="geometry" />
        </mxCell>
        <mxCell id="3Wsy6diL1BG13nHRlo5x-48" value="App Service" style="aspect=fixed;html=1;points=[];align=center;image;fontSize=12;image=img/lib/azure2/compute/App_Services.svg;rounded=0;glass=0;dashed=1;sketch=1;fillStyle=auto;strokeColor=#000000;strokeWidth=1;fillColor=#FFCC99;gradientColor=none;fontStyle=5" parent="jxoymsFl4kqGbWP8mDqd-30" vertex="1">
          <mxGeometry x="50.400000000000006" y="44.99999999999999" width="62.97142857142856" height="62.97142857142856" as="geometry" />
        </mxCell>
        <mxCell id="J6pMH1p_7KSv0R4gjlsr-27" value="C# / ASP.NET" style="shape=image;aspect=fixed;image=data:image/svg+xml,PHN2ZyB4bWxucz0iaHR0cDovL3d3dy53My5vcmcvMjAwMC9zdmciIHZpZXdCb3g9IjAgMCAxMjggMTI4Ij48cGF0aCBmaWxsPSIjOUI0Rjk2IiBkPSJNMTE1LjQgMzAuN0w2Ny4xIDIuOWMtLjgtLjUtMS45LS43LTMuMS0uNy0xLjIgMC0yLjMuMy0zLjEuN2wtNDggMjcuOWMtMS43IDEtMi45IDMuNS0yLjkgNS40djU1LjdjMCAxLjEuMiAyLjQgMSAzLjVsMTA2LjgtNjJjLS42LTEuMi0xLjUtMi4xLTIuNC0yLjd6Ii8+PHBhdGggZmlsbD0iIzY4MjE3QSIgZD0iTTEwLjcgOTUuM2MuNS44IDEuMiAxLjUgMS45IDEuOWw0OC4yIDI3LjljLjguNSAxLjkuNyAzLjEuNyAxLjIgMCAyLjMtLjMgMy4xLS43bDQ4LTI3LjljMS43LTEgMi45LTMuNSAyLjktNS40VjM2LjFjMC0uOS0uMS0xLjktLjYtMi44bC0xMDYuNiA2MnoiLz48cGF0aCBmaWxsPSIjZmZmIiBkPSJNODUuMyA3Ni4xQzgxLjEgODMuNSA3My4xIDg4LjUgNjQgODguNWMtMTMuNSAwLTI0LjUtMTEtMjQuNS0yNC41czExLTI0LjUgMjQuNS0yNC41YzkuMSAwIDE3LjEgNSAyMS4zIDEyLjVsMTMtNy41Yy02LjgtMTEuOS0xOS42LTIwLTM0LjMtMjAtMjEuOCAwLTM5LjUgMTcuNy0zOS41IDM5LjVzMTcuNyAzOS41IDM5LjUgMzkuNWMxNC42IDAgMjcuNC04IDM0LjItMTkuOGwtMTIuOS03LjZ6TTk3IDY2LjJsLjktNC4zaC00LjJ2LTQuN2g1LjFMMTAwIDUxaDQuOWwtMS4yIDYuMWgzLjhsMS4yLTYuMWg0LjhsLTEuMiA2LjFoMi40djQuN2gtMy4zbC0uOSA0LjNoNC4ydjQuN2gtNS4xbC0xLjIgNmgtNC45bDEuMi02aC0zLjhsLTEuMiA2aC00LjhsMS4yLTZoLTIuNHYtNC43SDk3em00LjggMGgzLjhsLjktNC4zaC0zLjhsLS45IDQuM3oiLz48L3N2Zz4=;verticalAlign=top;labelPosition=center;verticalLabelPosition=bottom;align=center;labelBackgroundColor=default;" parent="jxoymsFl4kqGbWP8mDqd-30" vertex="1">
          <mxGeometry x="127.95" width="30" height="30" as="geometry" />
        </mxCell>
        <mxCell id="J6pMH1p_7KSv0R4gjlsr-22" value="" style="group" parent="lu38r3Qyk8rX4jfRfJHu-5" vertex="1" connectable="0">
          <mxGeometry x="21" y="80" width="126" height="100" as="geometry" />
        </mxCell>
        <mxCell id="3Wsy6diL1BG13nHRlo5x-2" value="" style="rounded=0;whiteSpace=wrap;html=1;strokeWidth=1;glass=0;sketch=1;fillStyle=auto;fillColor=#FFFFCC;gradientColor=none;" parent="J6pMH1p_7KSv0R4gjlsr-22" vertex="1">
          <mxGeometry width="126" height="100" as="geometry" />
        </mxCell>
        <mxCell id="3Wsy6diL1BG13nHRlo5x-7" value="DNS Zone" style="sketch=0;aspect=fixed;html=1;points=[];align=center;image;fontSize=12;image=img/lib/mscae/DNS.svg;fontStyle=5" parent="J6pMH1p_7KSv0R4gjlsr-22" vertex="1">
          <mxGeometry x="38.400000000000006" y="25.399999999999977" width="49.19642857142857" height="49.19642857142857" as="geometry" />
        </mxCell>
        <mxCell id="J6pMH1p_7KSv0R4gjlsr-23" value="" style="group" parent="lu38r3Qyk8rX4jfRfJHu-5" vertex="1" connectable="0">
          <mxGeometry x="21" y="330" width="126" height="100" as="geometry" />
        </mxCell>
        <mxCell id="3Wsy6diL1BG13nHRlo5x-4" value="" style="rounded=0;whiteSpace=wrap;html=1;sketch=1;fillColor=#FF9999;" parent="J6pMH1p_7KSv0R4gjlsr-23" vertex="1">
          <mxGeometry width="126" height="100" as="geometry" />
        </mxCell>
        <mxCell id="3Wsy6diL1BG13nHRlo5x-9" value="&lt;b&gt;&lt;u&gt;FrontDoor / CDN&lt;/u&gt;&lt;/b&gt;" style="aspect=fixed;html=1;points=[];align=center;image;fontSize=12;image=img/lib/azure2/networking/CDN_Profiles.svg;rounded=0;glass=1;sketch=0;strokeWidth=1;" parent="J6pMH1p_7KSv0R4gjlsr-23" vertex="1">
          <mxGeometry x="29.549999999999997" y="20.639999999999986" width="66.90714285714286" height="39.357142857142854" as="geometry" />
        </mxCell>
        <mxCell id="jxoymsFl4kqGbWP8mDqd-27" style="rounded=0;sketch=1;orthogonalLoop=1;jettySize=auto;html=1;exitX=1;exitY=0.5;exitDx=0;exitDy=0;entryX=0;entryY=0.5;entryDx=0;entryDy=0;strokeColor=#0000FF;strokeWidth=1;fontColor=#000000;endArrow=block;endFill=1;" parent="lu38r3Qyk8rX4jfRfJHu-5" source="3Wsy6diL1BG13nHRlo5x-4" target="3Wsy6diL1BG13nHRlo5x-45" edge="1">
          <mxGeometry relative="1" as="geometry" />
        </mxCell>
        <mxCell id="jxoymsFl4kqGbWP8mDqd-26" style="edgeStyle=orthogonalEdgeStyle;rounded=0;orthogonalLoop=1;jettySize=auto;html=1;entryX=0.5;entryY=0;entryDx=0;entryDy=0;fontColor=#000000;endArrow=block;endFill=1;strokeWidth=1;strokeColor=#0000FF;sketch=1;" parent="lu38r3Qyk8rX4jfRfJHu-5" source="3Wsy6diL1BG13nHRlo5x-2" target="3Wsy6diL1BG13nHRlo5x-4" edge="1">
          <mxGeometry relative="1" as="geometry" />
        </mxCell>
        <mxCell id="J6pMH1p_7KSv0R4gjlsr-26" value="" style="group" parent="lu38r3Qyk8rX4jfRfJHu-5" vertex="1" connectable="0">
          <mxGeometry x="220" y="390" width="168" height="120" as="geometry" />
        </mxCell>
        <mxCell id="jxoymsFl4kqGbWP8mDqd-7" value="Shipping Management App" style="rounded=0;whiteSpace=wrap;html=1;glass=0;sketch=1;fillStyle=auto;strokeWidth=1;fillColor=#66FFFF;gradientColor=none;verticalAlign=top;labelPosition=center;verticalLabelPosition=bottom;align=center;" parent="J6pMH1p_7KSv0R4gjlsr-26" vertex="1">
          <mxGeometry width="168" height="120" as="geometry" />
        </mxCell>
        <mxCell id="J6pMH1p_7KSv0R4gjlsr-25" value="Power App" style="shape=image;aspect=fixed;image=data:image/svg+xml,PHN2ZyB3aWR0aD0iOTYiIGhlaWdodD0iOTYiIHZpZXdCb3g9IjAgMCA5NiA5NiIgZmlsbD0ibm9uZSIgeG1sbnM9Imh0dHA6Ly93d3cudzMub3JnLzIwMDAvc3ZnIj4KPGRlZnM+CjxmaWx0ZXIgaWQ9ImZpbHRlcjBfZiI+CjxmZUZsb29kIGZsb29kLW9wYWNpdHk9IjAiIHJlc3VsdD0iQmFja2dyb3VuZEltYWdlRml4Ii8+CjxmZUJsZW5kIG1vZGU9Im5vcm1hbCIgaW49IlNvdXJjZUdyYXBoaWMiIGluMj0iQmFja2dyb3VuZEltYWdlRml4IiByZXN1bHQ9InNoYXBlIi8+CjxmZUdhdXNzaWFuQmx1ciBzdGREZXZpYXRpb249IjQiIHJlc3VsdD0iZWZmZWN0MV9mb3JlZ3JvdW5kQmx1ciIvPgo8L2ZpbHRlcj4KPGZpbHRlciBpZD0iZmlsdGVyMV9mIj4KPGZlRmxvb2QgZmxvb2Qtb3BhY2l0eT0iMCIgcmVzdWx0PSJCYWNrZ3JvdW5kSW1hZ2VGaXgiLz4KPGZlQmxlbmQgbW9kZT0ibm9ybWFsIiBpbj0iU291cmNlR3JhcGhpYyIgaW4yPSJCYWNrZ3JvdW5kSW1hZ2VGaXgiIHJlc3VsdD0ic2hhcGUiLz4KPGZlR2F1c3NpYW5CbHVyIHN0ZERldmlhdGlvbj0iMC4zOCIgcmVzdWx0PSJlZmZlY3QxX2ZvcmVncm91bmRCbHVyIi8+CjwvZmlsdGVyPgo8bGluZWFyR3JhZGllbnQgaWQ9InBhaW50MF9saW5lYXIiIHgxPSI3MSIgeTE9Ijk2LjAwMDIiIHgyPSIxNSIgeTI9Ii00MC45OTk4IiBncmFkaWVudFVuaXRzPSJ1c2VyU3BhY2VPblVzZSI+CjxzdG9wIHN0b3AtY29sb3I9IiM3NDI3NzQiLz4KPHN0b3Agb2Zmc2V0PSIxIiBzdG9wLWNvbG9yPSIjQkIzNUE0Ii8+CjwvbGluZWFyR3JhZGllbnQ+CjxsaW5lYXJHcmFkaWVudCBpZD0icGFpbnQxX2xpbmVhciIgeDE9IjMyIiB5MT0iMC4wMDAyNDM2IiB4Mj0iNzgiIHkyPSI5Ni4wMDAyIiBncmFkaWVudFVuaXRzPSJ1c2VyU3BhY2VPblVzZSI+CjxzdG9wIHN0b3AtY29sb3I9IiNFNDhDQzciLz4KPHN0b3Agb2Zmc2V0PSIxIiBzdG9wLWNvbG9yPSIjRDQ2N0I5Ii8+CjwvbGluZWFyR3JhZGllbnQ+CjxsaW5lYXJHcmFkaWVudCBpZD0icGFpbnQyX2xpbmVhciIgeDE9IjYyIiB5MT0iMjkuMDAwMiIgeDI9Ijc2IiB5Mj0iNzIiIGdyYWRpZW50VW5pdHM9InVzZXJTcGFjZU9uVXNlIj4KPHN0b3Agc3RvcC1jb2xvcj0iI0U5QTFDQiIvPgo8c3RvcCBvZmZzZXQ9IjEiIHN0b3AtY29sb3I9IiNFNDhDQzciLz4KPC9saW5lYXJHcmFkaWVudD4KPGNsaXBQYXRoIGlkPSJjbGlwMCI+CjxyZWN0IHdpZHRoPSI5NiIgaGVpZ2h0PSI5NiIgZmlsbD0id2hpdGUiLz4KPC9jbGlwUGF0aD4KPGNsaXBQYXRoIGlkPSJjbGlwMSI+CjxyZWN0IHdpZHRoPSI5NiIgaGVpZ2h0PSI5NiIgZmlsbD0id2hpdGUiLz4KPC9jbGlwUGF0aD4KPGNsaXBQYXRoIGlkPSJjbGlwMiI+CjxyZWN0IHdpZHRoPSI5NiIgaGVpZ2h0PSI5NiIgZmlsbD0id2hpdGUiIHRyYW5zZm9ybT0idHJhbnNsYXRlKDAgMC4wMDAxMjIwNykiLz4KPC9jbGlwUGF0aD4KPC9kZWZzPgo8ZyBjbGlwLXBhdGg9InVybCgjY2xpcDApIj4KPGcgY2xpcC1wYXRoPSJ1cmwoI2NsaXAxKSI+CjxnIGNsaXAtcGF0aD0idXJsKCNjbGlwMikiPgo8bWFzayBpZD0ibWFzazAiIG1hc2stdHlwZT0iYWxwaGEiIG1hc2tVbml0cz0idXNlclNwYWNlT25Vc2UiIHg9Ii0xIiB5PSIxIiB3aWR0aD0iOTciIGhlaWdodD0iOTQiPgo8cGF0aCBkPSJNMS40NTcxNSA0NC4wNDlDLTAuNTIyMjM3IDQ2LjMxMTEgLTAuNTIyMjM4IDQ5LjY4ODkgMS40NTcxNSA1MS45NTFMMzYuOTg5NyA5Mi41NTk2QzM4LjU4MzMgOTQuMzgxIDQxLjQxNjcgOTQuMzgxIDQzLjAxMDMgOTIuNTU5Nkw0Ni44MzY3IDg4LjE4NjZMNTEuMDUwNCA5Mi43ODMzQzUyLjYzNTggOTQuNTEyOCA1NS4zNjIzIDk0LjUxMjggNTYuOTQ3NiA5Mi43ODMzTDk0LjI4MjUgNTIuMDU0M0M5Ni4zODUzIDQ5Ljc2MDQgOTYuMzg1MyA0Ni4yMzk2IDk0LjI4MjUgNDMuOTQ1N0w1Ni45NDc2IDMuMjE2NjdDNTUuMzYyMyAxLjQ4NzIgNTIuNjM1OCAxLjQ4NzIgNTEuMDUwNCAzLjIxNjY3TDQ2LjgzNjcgNy44MTM0MUw0My4wMTAzIDMuNDQwMzVDNDEuNDE2NyAxLjYxOTA0IDM4LjU4MzMgMS42MTkwNCAzNi45ODk3IDMuNDQwMzVMMS40NTcxNSA0NC4wNDlaIiBmaWxsPSJ3aGl0ZSIvPgo8L21hc2s+CjxnIG1hc2s9InVybCgjbWFzazApIj4KPHBhdGggZD0iTTQwIDk2TC0yIDQ4TDQwIDBMODIgNDhMNDAgOTZaIiBmaWxsPSJ1cmwoI3BhaW50MF9saW5lYXIpIi8+CjxnIGZpbHRlcj0idXJsKCNmaWx0ZXIwX2YpIj4KPHBhdGggZD0iTTUzLjk5OSAyTDk3Ljk5OSA1MEw1My45OTkgOThMMzQuNDc2NyA3Ni43MDI5QzMzLjA3NDggNzUuMTczNiAzMy4wNzQ4IDcyLjgyNjQgMzQuNDc2NyA3MS4yOTcxTDUxLjUyMTQgNTIuNzAyOUM1Mi45MjMyIDUxLjE3MzYgNTIuOTIzMiA0OC44MjY0IDUxLjUyMTQgNDcuMjk3MUwzNC40NzY3IDI4LjcwMjlDMzMuMDc0OCAyNy4xNzM2IDMzLjA3NDggMjQuODI2NCAzNC40NzY3IDIzLjI5NzFMNTMuOTk5IDJaIiBmaWxsPSJibGFjayIgZmlsbC1vcGFjaXR5PSIwLjMyIi8+CjwvZz4KPGcgZmlsdGVyPSJ1cmwoI2ZpbHRlcjFfZikiPgo8cGF0aCBkPSJNNTMuOTk5IDAuMzgwMTI3TDk3Ljk5OSA0OC4zODAxTDUzLjk5OSA5Ni4zODAxTDM0LjQ3NjcgNzUuMDgzQzMzLjA3NDggNzMuNTUzNyAzMy4wNzQ4IDcxLjIwNjUgMzQuNDc2NyA2OS42NzcyTDUxLjUyMTQgNTEuMDgzQzUyLjkyMzIgNDkuNTUzNyA1Mi45MjMyIDQ3LjIwNjUgNTEuNTIxNCA0NS42NzcyTDM0LjQ3NjcgMjcuMDgzQzMzLjA3NDggMjUuNTUzNyAzMy4wNzQ4IDIzLjIwNjUgMzQuNDc2NyAyMS42NzcyTDUzLjk5OSAwLjM4MDEyN1oiIGZpbGw9ImJsYWNrIiBmaWxsLW9wYWNpdHk9IjAuMjQiLz4KPC9nPgo8cGF0aCBkPSJNNTMuOTk5IDBMOTcuOTk5IDQ4TDUzLjk5OSA5NkwzNC40NzY3IDc0LjcwMjlDMzMuMDc0OCA3My4xNzM2IDMzLjA3NDggNzAuODI2NCAzNC40NzY3IDY5LjI5NzFMNTEuNTIxNCA1MC43MDI5QzUyLjkyMzIgNDkuMTczNiA1Mi45MjMyIDQ2LjgyNjQgNTEuNTIxNCA0NS4yOTcxTDM0LjQ3NjcgMjYuNzAyOUMzMy4wNzQ4IDI1LjE3MzYgMzMuMDc0OCAyMi44MjY0IDM0LjQ3NjcgMjEuMjk3MUw1My45OTkgMFoiIGZpbGw9InVybCgjcGFpbnQxX2xpbmVhcikiLz4KPHBhdGggZD0iTTczLjA1MTQgMjcuMjE2N0M3NC42MzY3IDI1LjQ4NzIgNzcuMzYzMyAyNS40ODcyIDc4Ljk0ODYgMjcuMjE2N0w5OCA0OEw3OC45NDg2IDY4Ljc4MzNDNzcuMzYzMyA3MC41MTI4IDc0LjYzNjcgNzAuNTEyOCA3My4wNTE0IDY4Ljc4MzNMNTcuNzE2NSA1Mi4wNTQzQzU1LjYxMzcgNDkuNzYwNCA1NS42MTM3IDQ2LjIzOTYgNTcuNzE2NSA0My45NDU3TDczLjA1MTQgMjcuMjE2N1oiIGZpbGw9InVybCgjcGFpbnQyX2xpbmVhcikiLz4KPC9nPgo8L2c+CjwvZz4KPC9nPgo8L3N2Zz4K;verticalAlign=top;labelPosition=center;verticalLabelPosition=bottom;align=center;fontStyle=5;labelBackgroundColor=default;" parent="J6pMH1p_7KSv0R4gjlsr-26" vertex="1">
          <mxGeometry x="51.75" y="25.5" width="64.5" height="64.5" as="geometry" />
        </mxCell>
        <mxCell id="jxoymsFl4kqGbWP8mDqd-29" style="rounded=0;sketch=1;orthogonalLoop=1;jettySize=auto;html=1;exitX=1;exitY=0.5;exitDx=0;exitDy=0;entryX=0;entryY=0.567;entryDx=0;entryDy=0;entryPerimeter=0;strokeColor=#0000FF;strokeWidth=1;fontColor=#000000;endArrow=block;endFill=1;" parent="lu38r3Qyk8rX4jfRfJHu-5" source="3Wsy6diL1BG13nHRlo5x-4" target="jxoymsFl4kqGbWP8mDqd-7" edge="1">
          <mxGeometry relative="1" as="geometry" />
        </mxCell>
        <mxCell id="lu38r3Qyk8rX4jfRfJHu-1" value="Product Images" style="rounded=0;whiteSpace=wrap;html=1;sketch=1;fillColor=#67AB9F;verticalAlign=top;labelPosition=center;verticalLabelPosition=bottom;align=center;" parent="lu38r3Qyk8rX4jfRfJHu-5" vertex="1">
          <mxGeometry x="220" y="560" width="170" height="120" as="geometry" />
        </mxCell>
        <mxCell id="lu38r3Qyk8rX4jfRfJHu-2" value="Storage Account" style="sketch=0;aspect=fixed;html=1;points=[];align=center;image;fontSize=12;image=img/lib/mscae/BlobBlock.svg;fillColor=#67AB9F;fontStyle=5" parent="lu38r3Qyk8rX4jfRfJHu-5" vertex="1">
          <mxGeometry x="279" y="599" width="50" height="42" as="geometry" />
        </mxCell>
        <mxCell id="lu38r3Qyk8rX4jfRfJHu-4" style="rounded=0;sketch=1;orthogonalLoop=1;jettySize=auto;html=1;exitX=1;exitY=0.5;exitDx=0;exitDy=0;entryX=0;entryY=0.5;entryDx=0;entryDy=0;strokeColor=#0000FF;strokeWidth=1;fontColor=#000000;endArrow=block;endFill=1;" parent="lu38r3Qyk8rX4jfRfJHu-5" source="3Wsy6diL1BG13nHRlo5x-4" target="lu38r3Qyk8rX4jfRfJHu-1" edge="1">
          <mxGeometry relative="1" as="geometry">
            <mxPoint x="157" y="423" as="sourcePoint" />
            <mxPoint x="230" y="501.03999999999996" as="targetPoint" />
          </mxGeometry>
        </mxCell>
        <mxCell id="6ZIBDE49WQn55EvCpT9G-3" value="" style="group" parent="lu38r3Qyk8rX4jfRfJHu-5" vertex="1" connectable="0">
          <mxGeometry x="220" y="18.5" width="168" height="141.5" as="geometry" />
        </mxCell>
        <mxCell id="3Wsy6diL1BG13nHRlo5x-10" value="Contoso Traders &lt;br&gt;(Main Website)" style="rounded=0;whiteSpace=wrap;html=1;glass=0;sketch=1;fillStyle=auto;strokeWidth=1;fillColor=#F8CECC;gradientColor=none;verticalAlign=top;labelPosition=center;verticalLabelPosition=bottom;align=center;" parent="6ZIBDE49WQn55EvCpT9G-3" vertex="1">
          <mxGeometry y="21.5" width="168" height="119.99999999999999" as="geometry" />
        </mxCell>
        <mxCell id="3Wsy6diL1BG13nHRlo5x-17" value="ReactJS" style="shape=image;html=1;verticalAlign=top;verticalLabelPosition=bottom;labelBackgroundColor=#ffffff;imageAspect=0;aspect=fixed;image=https://cdn1.iconfinder.com/data/icons/unicons-line-vol-5/24/react-128.png;rounded=0;glass=0;dashed=1;sketch=1;fillStyle=auto;strokeColor=#000000;strokeWidth=1;fillColor=#FFCC99;gradientColor=none;" parent="6ZIBDE49WQn55EvCpT9G-3" vertex="1">
          <mxGeometry x="127.94999999999999" width="39.35714285714285" height="39.35714285714285" as="geometry" />
        </mxCell>
        <mxCell id="6ZIBDE49WQn55EvCpT9G-1" value="App Service" style="aspect=fixed;html=1;points=[];align=center;image;fontSize=12;image=img/lib/azure2/compute/App_Services.svg;rounded=0;glass=0;dashed=1;sketch=1;fillStyle=auto;strokeColor=#000000;strokeWidth=1;fillColor=#FFCC99;gradientColor=none;fontStyle=5" parent="6ZIBDE49WQn55EvCpT9G-3" vertex="1">
          <mxGeometry x="52.50999999999999" y="50.00999999999999" width="62.97142857142856" height="62.97142857142856" as="geometry" />
        </mxCell>
        <mxCell id="J6pMH1p_7KSv0R4gjlsr-41" value="MICROSERVICES" style="rounded=0;whiteSpace=wrap;html=1;dashed=1;labelBackgroundColor=default;sketch=1;fillStyle=solid;strokeColor=#660033;fontColor=#000000;fillColor=#9999FF;opacity=10;strokeWidth=3;fontSize=14;verticalAlign=bottom;labelPosition=center;verticalLabelPosition=top;align=center;fontStyle=1" parent="1" vertex="1">
          <mxGeometry x="800" y="400" width="560" height="880" as="geometry" />
        </mxCell>
        <mxCell id="r9mk5RFWZT2YGMJUsQV9-5" value="" style="group" parent="1" vertex="1" connectable="0">
          <mxGeometry x="881.71" y="920" width="320" height="254.5" as="geometry" />
        </mxCell>
        <mxCell id="J6pMH1p_7KSv0R4gjlsr-46" value="" style="shape=image;aspect=fixed;image=data:image/svg+xml,PHN2ZyB4bWxucz0iaHR0cDovL3d3dy53My5vcmcvMjAwMC9zdmciIHZpZXdCb3g9IjAgMCAxMjggMTI4Ij48cGF0aCBmaWxsPSIjOUI0Rjk2IiBkPSJNMTE1LjQgMzAuN0w2Ny4xIDIuOWMtLjgtLjUtMS45LS43LTMuMS0uNy0xLjIgMC0yLjMuMy0zLjEuN2wtNDggMjcuOWMtMS43IDEtMi45IDMuNS0yLjkgNS40djU1LjdjMCAxLjEuMiAyLjQgMSAzLjVsMTA2LjgtNjJjLS42LTEuMi0xLjUtMi4xLTIuNC0yLjd6Ii8+PHBhdGggZmlsbD0iIzY4MjE3QSIgZD0iTTEwLjcgOTUuM2MuNS44IDEuMiAxLjUgMS45IDEuOWw0OC4yIDI3LjljLjguNSAxLjkuNyAzLjEuNyAxLjIgMCAyLjMtLjMgMy4xLS43bDQ4LTI3LjljMS43LTEgMi45LTMuNSAyLjktNS40VjM2LjFjMC0uOS0uMS0xLjktLjYtMi44bC0xMDYuNiA2MnoiLz48cGF0aCBmaWxsPSIjZmZmIiBkPSJNODUuMyA3Ni4xQzgxLjEgODMuNSA3My4xIDg4LjUgNjQgODguNWMtMTMuNSAwLTI0LjUtMTEtMjQuNS0yNC41czExLTI0LjUgMjQuNS0yNC41YzkuMSAwIDE3LjEgNSAyMS4zIDEyLjVsMTMtNy41Yy02LjgtMTEuOS0xOS42LTIwLTM0LjMtMjAtMjEuOCAwLTM5LjUgMTcuNy0zOS41IDM5LjVzMTcuNyAzOS41IDM5LjUgMzkuNWMxNC42IDAgMjcuNC04IDM0LjItMTkuOGwtMTIuOS03LjZ6TTk3IDY2LjJsLjktNC4zaC00LjJ2LTQuN2g1LjFMMTAwIDUxaDQuOWwtMS4yIDYuMWgzLjhsMS4yLTYuMWg0LjhsLTEuMiA2LjFoMi40djQuN2gtMy4zbC0uOSA0LjNoNC4ydjQuN2gtNS4xbC0xLjIgNmgtNC45bDEuMi02aC0zLjhsLTEuMiA2aC00LjhsMS4yLTZoLTIuNHYtNC43SDk3em00LjggMGgzLjhsLjktNC4zaC0zLjhsLS45IDQuM3oiLz48L3N2Zz4=;" parent="r9mk5RFWZT2YGMJUsQV9-5" vertex="1">
          <mxGeometry x="40" width="30" height="30" as="geometry" />
        </mxCell>
        <mxCell id="jxoymsFl4kqGbWP8mDqd-22" value="Image Search" style="rounded=0;whiteSpace=wrap;html=1;labelBackgroundColor=none;sketch=1;strokeColor=#000000;strokeWidth=1;fontColor=#000000;fillColor=#FFFF99;verticalAlign=bottom;labelPosition=center;verticalLabelPosition=top;align=center;" parent="r9mk5RFWZT2YGMJUsQV9-5" vertex="1">
          <mxGeometry y="14.5" width="320" height="240" as="geometry" />
        </mxCell>
        <mxCell id="jxoymsFl4kqGbWP8mDqd-55" value="Storage Account" style="sketch=0;aspect=fixed;html=1;points=[];align=center;image;fontSize=12;image=img/lib/mscae/BlobBlock.svg;rounded=0;shadow=0;glass=0;dashed=1;labelBackgroundColor=default;strokeColor=#000000;strokeWidth=3;fontColor=#000000;fillColor=#FFCCFF;fontStyle=5" parent="r9mk5RFWZT2YGMJUsQV9-5" vertex="1">
          <mxGeometry x="202" y="146.5" width="50" height="42" as="geometry" />
        </mxCell>
        <mxCell id="jxoymsFl4kqGbWP8mDqd-60" style="edgeStyle=none;rounded=0;sketch=1;orthogonalLoop=1;jettySize=auto;html=1;entryX=0.006;entryY=0.524;entryDx=0;entryDy=0;entryPerimeter=0;strokeColor=#FF3399;strokeWidth=1;fontSize=15;fontColor=#000000;startArrow=none;startFill=0;endArrow=classic;endFill=1;" parent="r9mk5RFWZT2YGMJUsQV9-5" source="jxoymsFl4kqGbWP8mDqd-56" target="jxoymsFl4kqGbWP8mDqd-55" edge="1">
          <mxGeometry relative="1" as="geometry" />
        </mxCell>
        <mxCell id="jxoymsFl4kqGbWP8mDqd-56" value="Cognitive Service&lt;br&gt;(Computer Vision)" style="aspect=fixed;html=1;points=[];align=center;image;fontSize=12;image=img/lib/azure2/ai_machine_learning/Cognitive_Services.svg;rounded=0;shadow=0;glass=0;dashed=1;labelBackgroundColor=default;sketch=0;strokeColor=#000000;strokeWidth=3;fontColor=#000000;fillColor=#FFCCFF;fontStyle=5" parent="r9mk5RFWZT2YGMJUsQV9-5" vertex="1">
          <mxGeometry x="40" y="144.5" width="68" height="48" as="geometry" />
        </mxCell>
        <mxCell id="J6pMH1p_7KSv0R4gjlsr-43" value="" style="shape=image;aspect=fixed;image=data:image/svg+xml,PHN2ZyB4bWxucz0iaHR0cDovL3d3dy53My5vcmcvMjAwMC9zdmciIHZpZXdCb3g9IjAgMCAxMjggMTI4Ij48ZyBmaWxsPSIjNjIzNjk3Ij48cGF0aCBkPSJNNjEuMTk1IDBoNC45NTNjMTIuOTE4LjUzNSAyNS42ODggNC44OSAzNi4wNDMgMTIuNjc2IDkuODA5IDcuMjg5IDE3LjQ3MyAxNy40MzcgMjEuNzI3IDI4LjkwNiAyLjQ0MSA2LjM4NyAzLjY2NCAxMy4xOCA0LjA4MiAxOS45OTJ2NC4yMTFjLS40MTQgMTEuMjkzLTMuNjY0IDIyLjUyLTkuNzMgMzIuMDgyLTYuODAxIDEwLjg5NS0xNi45MjIgMTkuNzMtMjguNzI3IDI0LjgyOEE2NC4zOTkgNjQuMzk5IDAgMDE2NS4wODIgMTI4aC0yLjE0NGMtMTEuNzM1LS4xOTEtMjMuNDEtMy42Ni0zMy4yOTctOS45OTItMTEuMTk2LTcuMTEzLTIwLjExNC0xNy43ODUtMjUuMDI4LTMwLjExN0MxLjg5MSA4MS4xOS40NDEgNzQuMDIgMCA2Ni44MTJ2LTQuOTU3Yy41MDQtMTQuMzkgNS45NTMtMjguNjA5IDE1LjQxLTM5LjQ5NkMyMy4xNjggMTMuMzEgMzMuNSA2LjQ4IDQ0Ljg4NyAyLjkzNyA1MC4xNzIgMS4yNyA1NS42NzYuNDEgNjEuMTk1IDBNMjUuMTkxIDM3LjUyM2MtLjAzIDEyLjE1My0uMDExIDI0LjMwNS0uMDExIDM2LjQ1NCAxLjQzLjAxMSAyLjg2LjAxMSA0LjI5My4wMTEtLjA3NS0xMC40MzMuMTAxLTIwLjg2My0uMTA2LTMxLjI5My40OC45MDcuOTE4IDEuODQgMS40NjUgMi43MDdDMzcuMDM1IDU0LjkxIDQzLjEwNSA2NC41IDQ5LjMwOSA3NGMxLjczOC0uMDIzIDMuNDc2LS4wMjMgNS4yMTQuMDA0LS4wMDMtMTIuMTYtLjAwNy0yNC4zMi4wMDQtMzYuNDhhMzA4LjA3NiAzMDguMDc2IDAgMDAtNC4yNS0uMDEyYy4wNzUgMTAuMzItLjEzNiAyMC42NC4xMjUgMzAuOTQ5LTYuNTA3LTEwLjM1Mi0xMy4xMDEtMjAuNjQ1LTE5LjY5NS0zMC45NDVhMzcwLjg1IDM3MC44NSAwIDAwLTUuNTE2LjAwN20zOC44NDQtLjAxMWMtLjEyOSAxMi4xNi0uMDA0IDI0LjMyLS4wNDcgMzYuNDc2IDYuNDY5LS4wMTUgMTIuOTM4LjAyNCAxOS40MS0uMDJhODMuMzYgODMuMzYgMCAwMS4wMjQtMy45NTJjLTUuMDEyLS4wMTYtMTAuMDI3LjAwNy0xNS4wNDMtLjAyLS4wNzQtNC4yMS0uMDA0LTguNDI2LS4wNC0xMi42MzcgNC4zOTUtLjA3OCA4Ljc5LjAxMiAxMy4xOC0uMDQ3LS4wMTEtMS4yNzctLjAxMS0yLjU1NC0uMDE5LTMuODMyLTQuMzg3LjE0MS04Ljc3My0uMDU0LTEzLjE2NC4wMTIuMDEyLTQuMDIzLjAyLTguMDUuMDItMTIuMDc4IDQuNjk5IDAgOS4zOTgtLjAyIDE0LjA5My4wMTItLjAwOC0xLjMwMSAwLTIuNjA2LjAxNi0zLjkwNi02LjE0NS0uMDE2LTEyLjI5LS4wMDgtMTguNDMtLjAwOG0yMi42MDIuMDU0Yy4wMDQgMS4yNjYuMDA0IDIuNTI4LjAwOCAzLjc5IDMuNDg4LS4wNCA2Ljk3Mi4xMDkgMTAuNDYuMDM1LS4wMjMgMTAuODYzLjAwNCAyMS43MTgtLjAxMSAzMi41NzQgMS40Ni4wNDMgMi45My4wMzUgNC4zOS0uMDktLjEyLTUuOTkyLjExOC0xMS45ODgtLjE1Ni0xNy45NzcuMDY3LTIuNjk5LS4wNy01LjM5NC4xMTctOC4wOS4xMDYtMi4xNC0uMjc3LTQuMjc3LS4wMzUtNi40MTcgMy41MTYuMDQ3IDcuMDM1LjAxNSAxMC41NS4wMTVhNTkuNzc0IDU5Ljc3NCAwIDAxLjA3NS0zLjgzMmMtOC40NjktLjEwNS0xNi45MzctLjA5NC0yNS4zOTgtLjAwOE0xMy41NSA2OS4wOTRjLTEuOTc3LjkxLTIuMTA2IDQuMDIzLS4xNDkgNS4wMjcgMS43MiAxLjE4IDQuMzA1LS4zNzEgNC4yMjctMi40MS4xMzMtMi4wMDQtMi4yOS0zLjY4OC00LjA3OC0yLjYxN20yOS4yMyAxNS4yODljLTQuMjc3IDMuNDY5LTQuMjI2IDExLjE5NS41IDE0LjI1IDIuNjY4IDEuNjk1IDYuMTAyIDEuMzQ0IDguOTIyLjIxNS4wMTItLjYyMS4wMjctMS4yMzkuMDUtMS44Ni0yLjY3MSAxLjM5NS02LjQxIDEuNjgtOC42NzUtLjYxLTIuOTY1LTMuMjM3LTIuMjk3LTkuMjY5IDEuNjEzLTExLjQ3NiAyLjIxMS0xLjE2NCA0LjkwNy0uODI0IDcuMDg2LjIzOS0uMDA3LS42Ni0uMDA0LTEuMzIgMC0xLjk4LTMuMDk3LTEuMDk5LTYuOTIyLTEuMDQtOS40OTYgMS4yMjJtMTcuMjA3IDIuNzFjLTEuODkuMjItMy43NTggMS4yMi00LjYzMyAyLjk2Ni0xLjI1MyAyLjQ5Ni0xLjEwOSA1Ljg2Ny44NjQgNy45NiAyLjAzNSAyLjI5NyA1Ljk0NSAyLjMyIDguMTguMjk3IDIuNDI1LTIuMzA4IDIuNjk5LTYuNDY4Ljc1Ny05LjE2NC0xLjE0OC0xLjYyOS0zLjI3My0yLjE4My01LjE2OC0yLjA1OG0xNy44ODcgMi43MjJjLTEuNjYgMi44ODMtMS4zMzIgNy4yNSAxLjU5OCA5LjIxMSAyLjE4MyAxLjIyIDQuOTMzLjgzMiA3LjA3NC0uMzA4LS4wMDQtLjYxNy4wMDQtMS4yMzUuMDMxLTEuODQ4LTEuNjg3IDEuMDctMy45MzcgMS44NTYtNS44MTIuNzc3LTEuMzA5LS43MjItMS43MDQtMi4yNTctMS45MTQtMy42MjUgMi44NzUtLjAzOSA1Ljc0Ni0uMDgyIDguNjI1LS4wNzQtLjA3NS0xLjgyOC0uMTE4LTMuODk0LTEuNDUtNS4zMDgtMi4xOTktMi40My02LjY0NC0xLjY1Ny04LjE1MiAxLjE3NW0tOC40MTQtMi4zMzZ2MTIuMDA4Yy42NTIgMCAxLjMxMiAwIDEuOTczLjAwNC4wMjMtMi4xOTUtLjA0LTQuMzk0LjAyMy02LjU5NC4wMTYtMS4yNy41MjctMi41NTggMS40ODQtMy40MTQuODAxLS42MDUgMS44ODMtLjI3IDIuODAxLS4yNDYtLjAxMi0uNjM2LS4wMi0xLjI3LS4wMjMtMS45MDItMS43OTMtLjM5OC0zLjMzNi42NTItNC4yNDIgMi4xMTctLjAyLS42MzMtLjA0LTEuMjY2LS4wNTEtMS44OTQtLjY1Ni0uMDI0LTEuMzEzLS4wNTEtMS45NjUtLjA3OXptMCAwIi8+PHBhdGggZD0iTTU4Ljc1OCA4OS4yMjNjMS42NTItLjgwNSA0LjAyMy0uNDEgNC45NDUgMS4zIDEuMDUgMS44ODcgMS4wMjcgNC4zODMtLjEzNyA2LjIxMS0xLjUyIDIuMjg2LTUuNTI3IDEuNzg2LTYuNTIzLS43NDItMS4wMDgtMi4yNTgtLjYxNy01LjQ4NCAxLjcxNS02Ljc3em0wIDBNNzkuMDQgOTIuNDE0Yy4wNDYtMS41NzQgMS4xNDQtMy4xMzcgMi43MjYtMy40OC45NzYtLjE2NCAyLjA5Ny4wMDcgMi43NzMuNzkzLjY3Mi43MTQuODEzIDEuNzE0Ljk4IDIuNjQtMi4xNi4wMTItNC4zMi0uMDMxLTYuNDguMDQ3em0wIDAiLz48L2c+PC9zdmc+;" parent="r9mk5RFWZT2YGMJUsQV9-5" vertex="1">
          <mxGeometry x="12.708404935884687" width="27.29521480765403" height="27.29521480765403" as="geometry" />
        </mxCell>
        <mxCell id="SqgddykTs4HYqL3Znm7L-7" style="edgeStyle=none;rounded=0;sketch=1;orthogonalLoop=1;jettySize=auto;html=1;entryX=0.56;entryY=0.083;entryDx=0;entryDy=0;entryPerimeter=0;strokeColor=#FF3399;" parent="r9mk5RFWZT2YGMJUsQV9-5" source="SqgddykTs4HYqL3Znm7L-6" target="jxoymsFl4kqGbWP8mDqd-55" edge="1">
          <mxGeometry relative="1" as="geometry" />
        </mxCell>
        <mxCell id="SqgddykTs4HYqL3Znm7L-8" style="edgeStyle=none;rounded=0;sketch=1;orthogonalLoop=1;jettySize=auto;html=1;strokeColor=#FF3399;" parent="r9mk5RFWZT2YGMJUsQV9-5" source="SqgddykTs4HYqL3Znm7L-6" target="jxoymsFl4kqGbWP8mDqd-56" edge="1">
          <mxGeometry relative="1" as="geometry" />
        </mxCell>
        <mxCell id="SqgddykTs4HYqL3Znm7L-6" value="App Service (Containerized)" style="aspect=fixed;html=1;points=[];align=center;image;fontSize=12;image=img/lib/azure2/compute/App_Services.svg;labelBackgroundColor=default;fontStyle=5" parent="r9mk5RFWZT2YGMJUsQV9-5" vertex="1">
          <mxGeometry x="124" y="30" width="64" height="64" as="geometry" />
        </mxCell>
        <mxCell id="SqgddykTs4HYqL3Znm7L-9" value="" style="sketch=0;aspect=fixed;html=1;points=[];align=center;image;fontSize=12;image=img/lib/mscae/Docker.svg;labelBackgroundColor=default;" parent="r9mk5RFWZT2YGMJUsQV9-5" vertex="1">
          <mxGeometry x="263" width="50" height="41" as="geometry" />
        </mxCell>
        <mxCell id="6ZIBDE49WQn55EvCpT9G-7" value="" style="group" parent="1" vertex="1" connectable="0">
          <mxGeometry x="880" y="450" width="321.71" height="136.5" as="geometry" />
        </mxCell>
        <mxCell id="J6pMH1p_7KSv0R4gjlsr-44" value="" style="shape=image;aspect=fixed;image=data:image/svg+xml,PHN2ZyB4bWxucz0iaHR0cDovL3d3dy53My5vcmcvMjAwMC9zdmciIHZpZXdCb3g9IjAgMCAxMjggMTI4Ij48cGF0aCBmaWxsPSIjOUI0Rjk2IiBkPSJNMTE1LjQgMzAuN0w2Ny4xIDIuOWMtLjgtLjUtMS45LS43LTMuMS0uNy0xLjIgMC0yLjMuMy0zLjEuN2wtNDggMjcuOWMtMS43IDEtMi45IDMuNS0yLjkgNS40djU1LjdjMCAxLjEuMiAyLjQgMSAzLjVsMTA2LjgtNjJjLS42LTEuMi0xLjUtMi4xLTIuNC0yLjd6Ii8+PHBhdGggZmlsbD0iIzY4MjE3QSIgZD0iTTEwLjcgOTUuM2MuNS44IDEuMiAxLjUgMS45IDEuOWw0OC4yIDI3LjljLjguNSAxLjkuNyAzLjEuNyAxLjIgMCAyLjMtLjMgMy4xLS43bDQ4LTI3LjljMS43LTEgMi45LTMuNSAyLjktNS40VjM2LjFjMC0uOS0uMS0xLjktLjYtMi44bC0xMDYuNiA2MnoiLz48cGF0aCBmaWxsPSIjZmZmIiBkPSJNODUuMyA3Ni4xQzgxLjEgODMuNSA3My4xIDg4LjUgNjQgODguNWMtMTMuNSAwLTI0LjUtMTEtMjQuNS0yNC41czExLTI0LjUgMjQuNS0yNC41YzkuMSAwIDE3LjEgNSAyMS4zIDEyLjVsMTMtNy41Yy02LjgtMTEuOS0xOS42LTIwLTM0LjMtMjAtMjEuOCAwLTM5LjUgMTcuNy0zOS41IDM5LjVzMTcuNyAzOS41IDM5LjUgMzkuNWMxNC42IDAgMjcuNC04IDM0LjItMTkuOGwtMTIuOS03LjZ6TTk3IDY2LjJsLjktNC4zaC00LjJ2LTQuN2g1LjFMMTAwIDUxaDQuOWwtMS4yIDYuMWgzLjhsMS4yLTYuMWg0LjhsLTEuMiA2LjFoMi40djQuN2gtMy4zbC0uOSA0LjNoNC4ydjQuN2gtNS4xbC0xLjIgNmgtNC45bDEuMi02aC0zLjhsLTEuMiA2aC00LjhsMS4yLTZoLTIuNHYtNC43SDk3em00LjggMGgzLjhsLjktNC4zaC0zLjhsLS45IDQuM3oiLz48L3N2Zz4=;" parent="6ZIBDE49WQn55EvCpT9G-7" vertex="1">
          <mxGeometry x="40" width="30" height="30" as="geometry" />
        </mxCell>
        <mxCell id="J6pMH1p_7KSv0R4gjlsr-39" value="" style="shape=image;aspect=fixed;image=data:image/svg+xml,PHN2ZyB4bWxucz0iaHR0cDovL3d3dy53My5vcmcvMjAwMC9zdmciIHZpZXdCb3g9IjAgMCAxMjggMTI4Ij48ZyBmaWxsPSIjNjIzNjk3Ij48cGF0aCBkPSJNNjEuMTk1IDBoNC45NTNjMTIuOTE4LjUzNSAyNS42ODggNC44OSAzNi4wNDMgMTIuNjc2IDkuODA5IDcuMjg5IDE3LjQ3MyAxNy40MzcgMjEuNzI3IDI4LjkwNiAyLjQ0MSA2LjM4NyAzLjY2NCAxMy4xOCA0LjA4MiAxOS45OTJ2NC4yMTFjLS40MTQgMTEuMjkzLTMuNjY0IDIyLjUyLTkuNzMgMzIuMDgyLTYuODAxIDEwLjg5NS0xNi45MjIgMTkuNzMtMjguNzI3IDI0LjgyOEE2NC4zOTkgNjQuMzk5IDAgMDE2NS4wODIgMTI4aC0yLjE0NGMtMTEuNzM1LS4xOTEtMjMuNDEtMy42Ni0zMy4yOTctOS45OTItMTEuMTk2LTcuMTEzLTIwLjExNC0xNy43ODUtMjUuMDI4LTMwLjExN0MxLjg5MSA4MS4xOS40NDEgNzQuMDIgMCA2Ni44MTJ2LTQuOTU3Yy41MDQtMTQuMzkgNS45NTMtMjguNjA5IDE1LjQxLTM5LjQ5NkMyMy4xNjggMTMuMzEgMzMuNSA2LjQ4IDQ0Ljg4NyAyLjkzNyA1MC4xNzIgMS4yNyA1NS42NzYuNDEgNjEuMTk1IDBNMjUuMTkxIDM3LjUyM2MtLjAzIDEyLjE1My0uMDExIDI0LjMwNS0uMDExIDM2LjQ1NCAxLjQzLjAxMSAyLjg2LjAxMSA0LjI5My4wMTEtLjA3NS0xMC40MzMuMTAxLTIwLjg2My0uMTA2LTMxLjI5My40OC45MDcuOTE4IDEuODQgMS40NjUgMi43MDdDMzcuMDM1IDU0LjkxIDQzLjEwNSA2NC41IDQ5LjMwOSA3NGMxLjczOC0uMDIzIDMuNDc2LS4wMjMgNS4yMTQuMDA0LS4wMDMtMTIuMTYtLjAwNy0yNC4zMi4wMDQtMzYuNDhhMzA4LjA3NiAzMDguMDc2IDAgMDAtNC4yNS0uMDEyYy4wNzUgMTAuMzItLjEzNiAyMC42NC4xMjUgMzAuOTQ5LTYuNTA3LTEwLjM1Mi0xMy4xMDEtMjAuNjQ1LTE5LjY5NS0zMC45NDVhMzcwLjg1IDM3MC44NSAwIDAwLTUuNTE2LjAwN20zOC44NDQtLjAxMWMtLjEyOSAxMi4xNi0uMDA0IDI0LjMyLS4wNDcgMzYuNDc2IDYuNDY5LS4wMTUgMTIuOTM4LjAyNCAxOS40MS0uMDJhODMuMzYgODMuMzYgMCAwMS4wMjQtMy45NTJjLTUuMDEyLS4wMTYtMTAuMDI3LjAwNy0xNS4wNDMtLjAyLS4wNzQtNC4yMS0uMDA0LTguNDI2LS4wNC0xMi42MzcgNC4zOTUtLjA3OCA4Ljc5LjAxMiAxMy4xOC0uMDQ3LS4wMTEtMS4yNzctLjAxMS0yLjU1NC0uMDE5LTMuODMyLTQuMzg3LjE0MS04Ljc3My0uMDU0LTEzLjE2NC4wMTIuMDEyLTQuMDIzLjAyLTguMDUuMDItMTIuMDc4IDQuNjk5IDAgOS4zOTgtLjAyIDE0LjA5My4wMTItLjAwOC0xLjMwMSAwLTIuNjA2LjAxNi0zLjkwNi02LjE0NS0uMDE2LTEyLjI5LS4wMDgtMTguNDMtLjAwOG0yMi42MDIuMDU0Yy4wMDQgMS4yNjYuMDA0IDIuNTI4LjAwOCAzLjc5IDMuNDg4LS4wNCA2Ljk3Mi4xMDkgMTAuNDYuMDM1LS4wMjMgMTAuODYzLjAwNCAyMS43MTgtLjAxMSAzMi41NzQgMS40Ni4wNDMgMi45My4wMzUgNC4zOS0uMDktLjEyLTUuOTkyLjExOC0xMS45ODgtLjE1Ni0xNy45NzcuMDY3LTIuNjk5LS4wNy01LjM5NC4xMTctOC4wOS4xMDYtMi4xNC0uMjc3LTQuMjc3LS4wMzUtNi40MTcgMy41MTYuMDQ3IDcuMDM1LjAxNSAxMC41NS4wMTVhNTkuNzc0IDU5Ljc3NCAwIDAxLjA3NS0zLjgzMmMtOC40NjktLjEwNS0xNi45MzctLjA5NC0yNS4zOTgtLjAwOE0xMy41NSA2OS4wOTRjLTEuOTc3LjkxLTIuMTA2IDQuMDIzLS4xNDkgNS4wMjcgMS43MiAxLjE4IDQuMzA1LS4zNzEgNC4yMjctMi40MS4xMzMtMi4wMDQtMi4yOS0zLjY4OC00LjA3OC0yLjYxN20yOS4yMyAxNS4yODljLTQuMjc3IDMuNDY5LTQuMjI2IDExLjE5NS41IDE0LjI1IDIuNjY4IDEuNjk1IDYuMTAyIDEuMzQ0IDguOTIyLjIxNS4wMTItLjYyMS4wMjctMS4yMzkuMDUtMS44Ni0yLjY3MSAxLjM5NS02LjQxIDEuNjgtOC42NzUtLjYxLTIuOTY1LTMuMjM3LTIuMjk3LTkuMjY5IDEuNjEzLTExLjQ3NiAyLjIxMS0xLjE2NCA0LjkwNy0uODI0IDcuMDg2LjIzOS0uMDA3LS42Ni0uMDA0LTEuMzIgMC0xLjk4LTMuMDk3LTEuMDk5LTYuOTIyLTEuMDQtOS40OTYgMS4yMjJtMTcuMjA3IDIuNzFjLTEuODkuMjItMy43NTggMS4yMi00LjYzMyAyLjk2Ni0xLjI1MyAyLjQ5Ni0xLjEwOSA1Ljg2Ny44NjQgNy45NiAyLjAzNSAyLjI5NyA1Ljk0NSAyLjMyIDguMTguMjk3IDIuNDI1LTIuMzA4IDIuNjk5LTYuNDY4Ljc1Ny05LjE2NC0xLjE0OC0xLjYyOS0zLjI3My0yLjE4My01LjE2OC0yLjA1OG0xNy44ODcgMi43MjJjLTEuNjYgMi44ODMtMS4zMzIgNy4yNSAxLjU5OCA5LjIxMSAyLjE4MyAxLjIyIDQuOTMzLjgzMiA3LjA3NC0uMzA4LS4wMDQtLjYxNy4wMDQtMS4yMzUuMDMxLTEuODQ4LTEuNjg3IDEuMDctMy45MzcgMS44NTYtNS44MTIuNzc3LTEuMzA5LS43MjItMS43MDQtMi4yNTctMS45MTQtMy42MjUgMi44NzUtLjAzOSA1Ljc0Ni0uMDgyIDguNjI1LS4wNzQtLjA3NS0xLjgyOC0uMTE4LTMuODk0LTEuNDUtNS4zMDgtMi4xOTktMi40My02LjY0NC0xLjY1Ny04LjE1MiAxLjE3NW0tOC40MTQtMi4zMzZ2MTIuMDA4Yy42NTIgMCAxLjMxMiAwIDEuOTczLjAwNC4wMjMtMi4xOTUtLjA0LTQuMzk0LjAyMy02LjU5NC4wMTYtMS4yNy41MjctMi41NTggMS40ODQtMy40MTQuODAxLS42MDUgMS44ODMtLjI3IDIuODAxLS4yNDYtLjAxMi0uNjM2LS4wMi0xLjI3LS4wMjMtMS45MDItMS43OTMtLjM5OC0zLjMzNi42NTItNC4yNDIgMi4xMTctLjAyLS42MzMtLjA0LTEuMjY2LS4wNTEtMS44OTQtLjY1Ni0uMDI0LTEuMzEzLS4wNTEtMS45NjUtLjA3OXptMCAwIi8+PHBhdGggZD0iTTU4Ljc1OCA4OS4yMjNjMS42NTItLjgwNSA0LjAyMy0uNDEgNC45NDUgMS4zIDEuMDUgMS44ODcgMS4wMjcgNC4zODMtLjEzNyA2LjIxMS0xLjUyIDIuMjg2LTUuNTI3IDEuNzg2LTYuNTIzLS43NDItMS4wMDgtMi4yNTgtLjYxNy01LjQ4NCAxLjcxNS02Ljc3em0wIDBNNzkuMDQgOTIuNDE0Yy4wNDYtMS41NzQgMS4xNDQtMy4xMzcgMi43MjYtMy40OC45NzYtLjE2NCAyLjA5Ny4wMDcgMi43NzMuNzkzLjY3Mi43MTQuODEzIDEuNzE0Ljk4IDIuNjQtMi4xNi4wMTItNC4zMi0uMDMxLTYuNDguMDQ3em0wIDAiLz48L2c+PC9zdmc+;" parent="6ZIBDE49WQn55EvCpT9G-7" vertex="1">
          <mxGeometry x="10" width="30" height="30" as="geometry" />
        </mxCell>
        <mxCell id="jxoymsFl4kqGbWP8mDqd-20" value="Shopping Cart" style="rounded=0;whiteSpace=wrap;html=1;labelBackgroundColor=none;sketch=1;strokeColor=#000000;strokeWidth=1;fontColor=#000000;fillColor=#CCE5FF;verticalAlign=bottom;labelPosition=center;verticalLabelPosition=top;align=center;shadow=0;" parent="6ZIBDE49WQn55EvCpT9G-7" vertex="1">
          <mxGeometry y="16.5" width="321.71" height="120" as="geometry" />
        </mxCell>
        <mxCell id="jxoymsFl4kqGbWP8mDqd-43" value="" style="group;labelBackgroundColor=default;" parent="6ZIBDE49WQn55EvCpT9G-7" vertex="1" connectable="0">
          <mxGeometry x="190" y="22.5" width="74" height="79" as="geometry" />
        </mxCell>
        <mxCell id="jxoymsFl4kqGbWP8mDqd-42" value="&lt;b&gt;&lt;u&gt;CosmosDB&lt;/u&gt;&lt;/b&gt;" style="aspect=fixed;html=1;points=[];align=center;image;fontSize=12;image=img/lib/azure2/databases/Azure_Cosmos_DB.svg;rounded=0;shadow=0;glass=0;dashed=1;labelBackgroundColor=default;sketch=0;strokeColor=#000000;strokeWidth=3;fontColor=#000000;fillColor=#CCE5FF;" parent="jxoymsFl4kqGbWP8mDqd-43" vertex="1">
          <mxGeometry y="15" width="64" height="64" as="geometry" />
        </mxCell>
        <mxCell id="SqgddykTs4HYqL3Znm7L-3" style="rounded=0;orthogonalLoop=1;jettySize=auto;html=1;entryX=0.016;entryY=0.625;entryDx=0;entryDy=0;entryPerimeter=0;strokeColor=#FF3399;sketch=1;" parent="6ZIBDE49WQn55EvCpT9G-7" source="gjyWVU2bTV-QBdAIOyQE-2" target="jxoymsFl4kqGbWP8mDqd-42" edge="1">
          <mxGeometry relative="1" as="geometry">
            <mxPoint x="110" y="76.73961669056052" as="sourcePoint" />
          </mxGeometry>
        </mxCell>
        <mxCell id="gjyWVU2bTV-QBdAIOyQE-2" value="Container App (ACA)" style="shape=image;aspect=fixed;image=data:image/svg+xml,PHN2ZyB4bWxucz0iaHR0cDovL3d3dy53My5vcmcvMjAwMC9zdmciIHdpZHRoPSIxOCIgaGVpZ2h0PSIxOCIgdmlld0JveD0iMCAwIDE4IDE4Ij48ZGVmcz48bGluZWFyR3JhZGllbnQgaWQ9ImIyN2YxYWQwLTdkMTEtNDI0Ny05ZGEzLTkxYmNlNjIxMWYzMiIgeDE9IjguNzk4IiB5MT0iOC43MDMiIHgyPSIxNC42ODMiIHkyPSI4LjcwMyIgZ3JhZGllbnRVbml0cz0idXNlclNwYWNlT25Vc2UiPjxzdG9wIG9mZnNldD0iMC4wMDEiIHN0b3AtY29sb3I9IiM3NzNhZGMiIC8+PHN0b3Agb2Zmc2V0PSIxIiBzdG9wLWNvbG9yPSIjNTUyZjk5IiAvPjwvbGluZWFyR3JhZGllbnQ+PGxpbmVhckdyYWRpZW50IGlkPSJiMmY5MjExMi00Y2E5LTRiMTctYTAxOS1jOWYyNmMxYTRhOGYiIHgxPSI1Ljc2NCIgeTE9IjMuNzc3IiB4Mj0iNS43NjQiIHkyPSIxMy43OCIgZ3JhZGllbnRVbml0cz0idXNlclNwYWNlT25Vc2UiPjxzdG9wIG9mZnNldD0iMCIgc3RvcC1jb2xvcj0iI2E2N2FmNCIgLz48c3RvcCBvZmZzZXQ9IjAuOTk5IiBzdG9wLWNvbG9yPSIjNzczYWRjIiAvPjwvbGluZWFyR3JhZGllbnQ+PC9kZWZzPjxnIGlkPSJiOGEwNDg2YS01NTAxLTRkOTItYjU0MC1hNzY2YzRiM2I1NDgiPjxnPjxnPjxnPjxwYXRoIGQ9Ik0xNi45MzIsMTEuNTc4YTguNDQ4LDguNDQ4LDAsMCwxLTcuOTUsNS41OSw4LjE1LDguMTUsMCwwLDEtMi4zMy0uMzMsMi4xMzMsMi4xMzMsMCwwLDAsLjE4LS44M2MuMDEsMCwuMDMuMDEuMDQuMDFhNy40MjIsNy40MjIsMCwwLDAsMi4xMS4zLDcuNjQ2LDcuNjQ2LDAsMCwwLDYuODUtNC4yOGwuMDEtLjAxWiIgZmlsbD0iIzMyYmVkZCIgLz48cGF0aCBkPSJNMy41ODIsMTQuMDY4YTIuMDI1LDIuMDI1LDAsMCwwLS42NC41Niw4LjYsOC42LDAsMCwxLTEuNjctMi40NGwxLjA0LjIzdi4yNmEuNi42LDAsMCwwLC40Ny41OWwuMTQuMDNhNi4xMzYsNi4xMzYsMCwwLDAsLjYyLjczWiIgZmlsbD0iIzMyYmVkZCIgLz48cGF0aCBkPSJNMTIuMzUyLjk1OGEyLjI4LDIuMjgsMCwwLDAtLjI3LjgxYy0uMDItLjAxLS4wNS0uMDItLjA3LS4wM2E3LjQ3OSw3LjQ3OSwwLDAsMC0zLjAzLS42Myw3LjY0Myw3LjY0MywwLDAsMC01LjksMi44bC0uMjkuMDZhLjYuNiwwLDAsMC0uNDguNTh2LjQ2bC0xLjAyLjE5QTguNDU0LDguNDU0LDAsMCwxLDguOTgyLjI2OCw4LjYsOC42LDAsMCwxLDEyLjM1Mi45NThaIiBmaWxsPSIjMzJiZWRkIiAvPjxwYXRoIGQ9Ik0xNi44NzIsNS43bC0xLjA5LS4zOGE2LjYsNi42LDAsMCwwLS43Mi0xLjE2Yy0uMDItLjAzLS4wNC0uMDUtLjA1LS4wN2EyLjA4MywyLjA4MywwLDAsMCwuNzItLjQ1QTcuODEsNy44MSwwLDAsMSwxNi44NzIsNS43WiIgZmlsbD0iIzMyYmVkZCIgLz48cGF0aCBkPSJNMTAuMDcyLDExLjkwOGwyLjU0LjU2TDguNjcyLDE0LjFjLS4wMiwwLS4wMy4wMS0uMDUuMDFhLjE1NC4xNTQsMCwwLDEtLjE1LS4xNVYzLjQ0OGEuMTU0LjE1NCwwLDAsMSwuMTUtLjE1LjA5LjA5LDAsMCwxLC4wNS4wMWw0LjQ2LDEuNTYtMy4wNS41N2EuNTY1LjU2NSwwLDAsMC0uNDQuNTR2NS40QS41MzcuNTM3LDAsMCwwLDEwLjA3MiwxMS45MDhaIiBmaWxsPSIjZmZmIiAvPjxnPjxnIGlkPSJlOTE4ZjI4Ni01MDMyLTQ5NDItYWQyOS1lYTE3ZTZmMWNjOTAiPjxwYXRoIGQ9Ik0xLjEsNS42NjhsMS4yMS0uMjN2Ni41NWwtMS4yMy0uMjctLjk5LS4yMmEuMTExLjExMSwwLDAsMS0uMDktLjEydi01LjRhLjEyLjEyLDAsMCwxLC4wOS0uMTJaIiBmaWxsPSIjYTY3YWY0IiAvPjwvZz48Zz48ZyBpZD0iYTQ3YTk5ZGQtNGQ0Ny00YzcwLThjNDItYzVhYzI3NGNlNDk2Ij48Zz48cGF0aCBkPSJNMTAuMDcyLDExLjkwOGwyLjU0LjU2TDguNjcyLDE0LjFjLS4wMiwwLS4wMy4wMS0uMDUuMDFhLjE1NC4xNTQsMCwwLDEtLjE1LS4xNVYzLjQ0OGEuMTU0LjE1NCwwLDAsMSwuMTUtLjE1LjA5LjA5LDAsMCwxLC4wNS4wMWw0LjQ2LDEuNTYtMy4wNS41N2EuNTY1LjU2NSwwLDAsMC0uNDQuNTR2NS40QS41MzcuNTM3LDAsMCwwLDEwLjA3MiwxMS45MDhaIiBmaWxsPSJ1cmwoI2IyN2YxYWQwLTdkMTEtNDI0Ny05ZGEzLTkxYmNlNjIxMWYzMikiIC8+PHBhdGggZD0iTTguNTg2LDMuMywyLjg3OCw0LjM3OGEuMTc3LjE3NywwLDAsMC0uMTQuMTc1VjEyLjY4YS4xNzcuMTc3LDAsMCwwLC4xMzcuMTc0TDguNTgxLDE0LjFhLjE3Ni4xNzYsMCwwLDAsLjIxLS4xNzRWMy40NzhBLjE3NS4xNzUsMCwwLDAsOC42MTksMy4zWiIgZmlsbD0idXJsKCNiMmY5MjExMi00Y2E5LTRiMTctYTAxOS1jOWYyNmMxYTRhOGYpIiAvPjwvZz48L2c+PHBvbHlnb24gcG9pbnRzPSI1Ljk0OCA0LjkyMSA1Ljk0OCAxMi40ODMgNy45MzQgMTIuODE0IDcuOTM0IDQuNTY0IDUuOTQ4IDQuOTIxIiBmaWxsPSIjYjc5NmY5IiBvcGFjaXR5PSIwLjUiIC8+PHBvbHlnb24gcG9pbnRzPSIzLjUwOSA1LjMyOSAzLjUwOSAxMS45NTQgNS4yMzggMTIuMzE3IDUuMjM4IDUuMDMxIDMuNTA5IDUuMzI5IiBmaWxsPSIjYjc5NmY5IiBvcGFjaXR5PSIwLjUiIC8+PC9nPjwvZz48L2c+PHBhdGggZD0iTTE2LDIuMDQ4YTEuNzU1LDEuNzU1LDAsMSwxLTEuNzYtMS43NkExLjc1NiwxLjc1NiwwLDAsMSwxNiwyLjA0OFoiIGZpbGw9IiMzMmJlZGQiIC8+PGNpcmNsZSBjeD0iNC42NSIgY3k9IjE1Ljk3MyIgcj0iMS43NTkiIGZpbGw9IiMzMmJlZGQiIC8+PC9nPjxwYXRoIGQ9Ik0xOCw2LjY4OXYzLjg0NGEuMjIyLjIyMiwwLDAsMS0uMTMzLjJsLS43NjYuMzE2LTMuMDcsMS4yNjgtLjAxMSwwYS4xMjYuMTI2LDAsMCwxLS4wMzgsMCwuMS4xLDAsMCwxLS4xLS4xVjUuMjM0YS4xLjEsMCwwLDEsLjA1NC0uMDg4bDAsMCwuMDE5LDBhLjAzMS4wMzEsMCwwLDEsLjAxOSwwLC4wNTUuMDU1LDAsMCwxLC4wMzQuMDA4bC4wMTEsMCwuMDEyLDBMMTcuMDUsNi4ybC44LjI4MkEuMjEzLjIxMywwLDAsMSwxOCw2LjY4OVoiIGZpbGw9IiM3NzNhZGMiIC8+PHBhdGggZD0iTTEzLjk1OSw1LjE0bC0zLjguNzE1YS4xMTguMTE4LDAsMCwwLS4wOTMuMTE3djUuNDA5YS4xMTguMTE4LDAsMCwwLC4wOTEuMTE2bDMuOC44MzFhLjExNS4xMTUsMCwwLDAsLjEzNy0uMDkuMTA5LjEwOSwwLDAsMCwwLS4wMjZWNS4yNTZhLjExNy4xMTcsMCwwLDAtLjExNS0uMTE4QS4wODIuMDgyLDAsMCwwLDEzLjk1OSw1LjE0WiIgZmlsbD0iI2E2N2FmNCIgLz48L2c+PC9nPjwvc3ZnPg==;verticalAlign=top;labelPosition=center;verticalLabelPosition=bottom;align=center;labelBackgroundColor=default;fontStyle=5" parent="6ZIBDE49WQn55EvCpT9G-7" vertex="1">
          <mxGeometry x="50" y="41.5" width="60" height="60" as="geometry" />
        </mxCell>
        <mxCell id="6ZIBDE49WQn55EvCpT9G-39" value="" style="group" parent="1" vertex="1" connectable="0">
          <mxGeometry x="880" y="640" width="320" height="240" as="geometry" />
        </mxCell>
        <mxCell id="jxoymsFl4kqGbWP8mDqd-21" value="Products + Stocks/Inventory" style="rounded=0;whiteSpace=wrap;html=1;labelBackgroundColor=none;sketch=1;strokeColor=#000000;strokeWidth=1;fontColor=#000000;fillColor=#FFCCFF;verticalAlign=bottom;labelPosition=center;verticalLabelPosition=top;align=center;" parent="6ZIBDE49WQn55EvCpT9G-39" vertex="1">
          <mxGeometry y="12.700000000000045" width="320" height="227.3" as="geometry" />
        </mxCell>
        <mxCell id="jxoymsFl4kqGbWP8mDqd-50" value="SQL Azure" style="aspect=fixed;html=1;points=[];align=center;image;fontSize=12;image=img/lib/azure2/databases/SQL_Database.svg;rounded=0;shadow=0;glass=0;dashed=1;labelBackgroundColor=default;sketch=0;strokeColor=#000000;strokeWidth=3;fontColor=#000000;fillColor=#FF3333;fontStyle=5" parent="6ZIBDE49WQn55EvCpT9G-39" vertex="1">
          <mxGeometry x="210.00490858946296" y="43.83999999999992" width="43.67234369224644" height="58.22979158966193" as="geometry" />
        </mxCell>
        <mxCell id="J6pMH1p_7KSv0R4gjlsr-45" value="" style="shape=image;aspect=fixed;image=data:image/svg+xml,PHN2ZyB4bWxucz0iaHR0cDovL3d3dy53My5vcmcvMjAwMC9zdmciIHZpZXdCb3g9IjAgMCAxMjggMTI4Ij48cGF0aCBmaWxsPSIjOUI0Rjk2IiBkPSJNMTE1LjQgMzAuN0w2Ny4xIDIuOWMtLjgtLjUtMS45LS43LTMuMS0uNy0xLjIgMC0yLjMuMy0zLjEuN2wtNDggMjcuOWMtMS43IDEtMi45IDMuNS0yLjkgNS40djU1LjdjMCAxLjEuMiAyLjQgMSAzLjVsMTA2LjgtNjJjLS42LTEuMi0xLjUtMi4xLTIuNC0yLjd6Ii8+PHBhdGggZmlsbD0iIzY4MjE3QSIgZD0iTTEwLjcgOTUuM2MuNS44IDEuMiAxLjUgMS45IDEuOWw0OC4yIDI3LjljLjguNSAxLjkuNyAzLjEuNyAxLjIgMCAyLjMtLjMgMy4xLS43bDQ4LTI3LjljMS43LTEgMi45LTMuNSAyLjktNS40VjM2LjFjMC0uOS0uMS0xLjktLjYtMi44bC0xMDYuNiA2MnoiLz48cGF0aCBmaWxsPSIjZmZmIiBkPSJNODUuMyA3Ni4xQzgxLjEgODMuNSA3My4xIDg4LjUgNjQgODguNWMtMTMuNSAwLTI0LjUtMTEtMjQuNS0yNC41czExLTI0LjUgMjQuNS0yNC41YzkuMSAwIDE3LjEgNSAyMS4zIDEyLjVsMTMtNy41Yy02LjgtMTEuOS0xOS42LTIwLTM0LjMtMjAtMjEuOCAwLTM5LjUgMTcuNy0zOS41IDM5LjVzMTcuNyAzOS41IDM5LjUgMzkuNWMxNC42IDAgMjcuNC04IDM0LjItMTkuOGwtMTIuOS03LjZ6TTk3IDY2LjJsLjktNC4zaC00LjJ2LTQuN2g1LjFMMTAwIDUxaDQuOWwtMS4yIDYuMWgzLjhsMS4yLTYuMWg0LjhsLTEuMiA2LjFoMi40djQuN2gtMy4zbC0uOSA0LjNoNC4ydjQuN2gtNS4xbC0xLjIgNmgtNC45bDEuMi02aC0zLjhsLTEuMiA2aC00LjhsMS4yLTZoLTIuNHYtNC43SDk3em00LjggMGgzLjhsLjktNC4zaC0zLjhsLS45IDQuM3oiLz48L3N2Zz4=;" parent="6ZIBDE49WQn55EvCpT9G-39" vertex="1">
          <mxGeometry x="36.389999999999986" width="30" height="30" as="geometry" />
        </mxCell>
        <mxCell id="SqgddykTs4HYqL3Znm7L-5" style="edgeStyle=none;rounded=0;sketch=1;orthogonalLoop=1;jettySize=auto;html=1;strokeColor=#FF3399;" parent="6ZIBDE49WQn55EvCpT9G-39" source="6ZIBDE49WQn55EvCpT9G-8" target="jxoymsFl4kqGbWP8mDqd-50" edge="1">
          <mxGeometry relative="1" as="geometry">
            <mxPoint x="112.73999999999978" y="72.95103682537638" as="sourcePoint" />
          </mxGeometry>
        </mxCell>
        <mxCell id="r9mk5RFWZT2YGMJUsQV9-8" value="CosmosDB" style="aspect=fixed;html=1;points=[];align=center;image;fontSize=12;image=img/lib/azure2/databases/Azure_Cosmos_DB.svg;fontStyle=5" parent="6ZIBDE49WQn55EvCpT9G-39" vertex="1">
          <mxGeometry x="160" y="140" width="64" height="64" as="geometry" />
        </mxCell>
        <mxCell id="r9mk5RFWZT2YGMJUsQV9-11" style="edgeStyle=none;rounded=0;sketch=1;orthogonalLoop=1;jettySize=auto;html=1;strokeColor=#FF3399;" parent="6ZIBDE49WQn55EvCpT9G-39" source="6ZIBDE49WQn55EvCpT9G-8" target="r9mk5RFWZT2YGMJUsQV9-8" edge="1">
          <mxGeometry relative="1" as="geometry">
            <mxPoint x="112.73999999999978" y="101.43822577745823" as="sourcePoint" />
            <mxPoint x="95.13154972236225" y="140" as="targetPoint" />
          </mxGeometry>
        </mxCell>
        <mxCell id="6ZIBDE49WQn55EvCpT9G-8" value="&lt;b&gt;&lt;u&gt;AKS&lt;/u&gt;&lt;/b&gt;" style="html=1;points=[];align=center;image;fontSize=12;image=img/lib/azure2/containers/Kubernetes_Services.svg;rounded=0;shadow=0;glass=0;dashed=1;labelBackgroundColor=default;sketch=0;strokeColor=#000000;strokeWidth=3;fontColor=#000000;fillColor=#E1D5E7;aspect=fixed;" parent="6ZIBDE49WQn55EvCpT9G-39" vertex="1">
          <mxGeometry x="36.389999999999986" y="60" width="60" height="60" as="geometry" />
        </mxCell>
        <mxCell id="J6pMH1p_7KSv0R4gjlsr-42" value="" style="shape=image;aspect=fixed;image=data:image/svg+xml,PHN2ZyB4bWxucz0iaHR0cDovL3d3dy53My5vcmcvMjAwMC9zdmciIHZpZXdCb3g9IjAgMCAxMjggMTI4Ij48ZyBmaWxsPSIjNjIzNjk3Ij48cGF0aCBkPSJNNjEuMTk1IDBoNC45NTNjMTIuOTE4LjUzNSAyNS42ODggNC44OSAzNi4wNDMgMTIuNjc2IDkuODA5IDcuMjg5IDE3LjQ3MyAxNy40MzcgMjEuNzI3IDI4LjkwNiAyLjQ0MSA2LjM4NyAzLjY2NCAxMy4xOCA0LjA4MiAxOS45OTJ2NC4yMTFjLS40MTQgMTEuMjkzLTMuNjY0IDIyLjUyLTkuNzMgMzIuMDgyLTYuODAxIDEwLjg5NS0xNi45MjIgMTkuNzMtMjguNzI3IDI0LjgyOEE2NC4zOTkgNjQuMzk5IDAgMDE2NS4wODIgMTI4aC0yLjE0NGMtMTEuNzM1LS4xOTEtMjMuNDEtMy42Ni0zMy4yOTctOS45OTItMTEuMTk2LTcuMTEzLTIwLjExNC0xNy43ODUtMjUuMDI4LTMwLjExN0MxLjg5MSA4MS4xOS40NDEgNzQuMDIgMCA2Ni44MTJ2LTQuOTU3Yy41MDQtMTQuMzkgNS45NTMtMjguNjA5IDE1LjQxLTM5LjQ5NkMyMy4xNjggMTMuMzEgMzMuNSA2LjQ4IDQ0Ljg4NyAyLjkzNyA1MC4xNzIgMS4yNyA1NS42NzYuNDEgNjEuMTk1IDBNMjUuMTkxIDM3LjUyM2MtLjAzIDEyLjE1My0uMDExIDI0LjMwNS0uMDExIDM2LjQ1NCAxLjQzLjAxMSAyLjg2LjAxMSA0LjI5My4wMTEtLjA3NS0xMC40MzMuMTAxLTIwLjg2My0uMTA2LTMxLjI5My40OC45MDcuOTE4IDEuODQgMS40NjUgMi43MDdDMzcuMDM1IDU0LjkxIDQzLjEwNSA2NC41IDQ5LjMwOSA3NGMxLjczOC0uMDIzIDMuNDc2LS4wMjMgNS4yMTQuMDA0LS4wMDMtMTIuMTYtLjAwNy0yNC4zMi4wMDQtMzYuNDhhMzA4LjA3NiAzMDguMDc2IDAgMDAtNC4yNS0uMDEyYy4wNzUgMTAuMzItLjEzNiAyMC42NC4xMjUgMzAuOTQ5LTYuNTA3LTEwLjM1Mi0xMy4xMDEtMjAuNjQ1LTE5LjY5NS0zMC45NDVhMzcwLjg1IDM3MC44NSAwIDAwLTUuNTE2LjAwN20zOC44NDQtLjAxMWMtLjEyOSAxMi4xNi0uMDA0IDI0LjMyLS4wNDcgMzYuNDc2IDYuNDY5LS4wMTUgMTIuOTM4LjAyNCAxOS40MS0uMDJhODMuMzYgODMuMzYgMCAwMS4wMjQtMy45NTJjLTUuMDEyLS4wMTYtMTAuMDI3LjAwNy0xNS4wNDMtLjAyLS4wNzQtNC4yMS0uMDA0LTguNDI2LS4wNC0xMi42MzcgNC4zOTUtLjA3OCA4Ljc5LjAxMiAxMy4xOC0uMDQ3LS4wMTEtMS4yNzctLjAxMS0yLjU1NC0uMDE5LTMuODMyLTQuMzg3LjE0MS04Ljc3My0uMDU0LTEzLjE2NC4wMTIuMDEyLTQuMDIzLjAyLTguMDUuMDItMTIuMDc4IDQuNjk5IDAgOS4zOTgtLjAyIDE0LjA5My4wMTItLjAwOC0xLjMwMSAwLTIuNjA2LjAxNi0zLjkwNi02LjE0NS0uMDE2LTEyLjI5LS4wMDgtMTguNDMtLjAwOG0yMi42MDIuMDU0Yy4wMDQgMS4yNjYuMDA0IDIuNTI4LjAwOCAzLjc5IDMuNDg4LS4wNCA2Ljk3Mi4xMDkgMTAuNDYuMDM1LS4wMjMgMTAuODYzLjAwNCAyMS43MTgtLjAxMSAzMi41NzQgMS40Ni4wNDMgMi45My4wMzUgNC4zOS0uMDktLjEyLTUuOTkyLjExOC0xMS45ODgtLjE1Ni0xNy45NzcuMDY3LTIuNjk5LS4wNy01LjM5NC4xMTctOC4wOS4xMDYtMi4xNC0uMjc3LTQuMjc3LS4wMzUtNi40MTcgMy41MTYuMDQ3IDcuMDM1LjAxNSAxMC41NS4wMTVhNTkuNzc0IDU5Ljc3NCAwIDAxLjA3NS0zLjgzMmMtOC40NjktLjEwNS0xNi45MzctLjA5NC0yNS4zOTgtLjAwOE0xMy41NSA2OS4wOTRjLTEuOTc3LjkxLTIuMTA2IDQuMDIzLS4xNDkgNS4wMjcgMS43MiAxLjE4IDQuMzA1LS4zNzEgNC4yMjctMi40MS4xMzMtMi4wMDQtMi4yOS0zLjY4OC00LjA3OC0yLjYxN20yOS4yMyAxNS4yODljLTQuMjc3IDMuNDY5LTQuMjI2IDExLjE5NS41IDE0LjI1IDIuNjY4IDEuNjk1IDYuMTAyIDEuMzQ0IDguOTIyLjIxNS4wMTItLjYyMS4wMjctMS4yMzkuMDUtMS44Ni0yLjY3MSAxLjM5NS02LjQxIDEuNjgtOC42NzUtLjYxLTIuOTY1LTMuMjM3LTIuMjk3LTkuMjY5IDEuNjEzLTExLjQ3NiAyLjIxMS0xLjE2NCA0LjkwNy0uODI0IDcuMDg2LjIzOS0uMDA3LS42Ni0uMDA0LTEuMzIgMC0xLjk4LTMuMDk3LTEuMDk5LTYuOTIyLTEuMDQtOS40OTYgMS4yMjJtMTcuMjA3IDIuNzFjLTEuODkuMjItMy43NTggMS4yMi00LjYzMyAyLjk2Ni0xLjI1MyAyLjQ5Ni0xLjEwOSA1Ljg2Ny44NjQgNy45NiAyLjAzNSAyLjI5NyA1Ljk0NSAyLjMyIDguMTguMjk3IDIuNDI1LTIuMzA4IDIuNjk5LTYuNDY4Ljc1Ny05LjE2NC0xLjE0OC0xLjYyOS0zLjI3My0yLjE4My01LjE2OC0yLjA1OG0xNy44ODcgMi43MjJjLTEuNjYgMi44ODMtMS4zMzIgNy4yNSAxLjU5OCA5LjIxMSAyLjE4MyAxLjIyIDQuOTMzLjgzMiA3LjA3NC0uMzA4LS4wMDQtLjYxNy4wMDQtMS4yMzUuMDMxLTEuODQ4LTEuNjg3IDEuMDctMy45MzcgMS44NTYtNS44MTIuNzc3LTEuMzA5LS43MjItMS43MDQtMi4yNTctMS45MTQtMy42MjUgMi44NzUtLjAzOSA1Ljc0Ni0uMDgyIDguNjI1LS4wNzQtLjA3NS0xLjgyOC0uMTE4LTMuODk0LTEuNDUtNS4zMDgtMi4xOTktMi40My02LjY0NC0xLjY1Ny04LjE1MiAxLjE3NW0tOC40MTQtMi4zMzZ2MTIuMDA4Yy42NTIgMCAxLjMxMiAwIDEuOTczLjAwNC4wMjMtMi4xOTUtLjA0LTQuMzk0LjAyMy02LjU5NC4wMTYtMS4yNy41MjctMi41NTggMS40ODQtMy40MTQuODAxLS42MDUgMS44ODMtLjI3IDIuODAxLS4yNDYtLjAxMi0uNjM2LS4wMi0xLjI3LS4wMjMtMS45MDItMS43OTMtLjM5OC0zLjMzNi42NTItNC4yNDIgMi4xMTctLjAyLS42MzMtLjA0LTEuMjY2LS4wNTEtMS44OTQtLjY1Ni0uMDI0LTEuMzEzLS4wNTEtMS45NjUtLjA3OXptMCAwIi8+PHBhdGggZD0iTTU4Ljc1OCA4OS4yMjNjMS42NTItLjgwNSA0LjAyMy0uNDEgNC45NDUgMS4zIDEuMDUgMS44ODcgMS4wMjcgNC4zODMtLjEzNyA2LjIxMS0xLjUyIDIuMjg2LTUuNTI3IDEuNzg2LTYuNTIzLS43NDItMS4wMDgtMi4yNTgtLjYxNy01LjQ4NCAxLjcxNS02Ljc3em0wIDBNNzkuMDQgOTIuNDE0Yy4wNDYtMS41NzQgMS4xNDQtMy4xMzcgMi43MjYtMy40OC45NzYtLjE2NCAyLjA5Ny4wMDcgMi43NzMuNzkzLjY3Mi43MTQuODEzIDEuNzE0Ljk4IDIuNjQtMi4xNi4wMTItNC4zMi0uMDMxLTYuNDguMDQ3em0wIDAiLz48L2c+PC9zdmc+;" parent="6ZIBDE49WQn55EvCpT9G-39" vertex="1">
          <mxGeometry x="9.098404935884673" width="27.29521480765403" height="27.29521480765403" as="geometry" />
        </mxCell>
        <mxCell id="J6pMH1p_7KSv0R4gjlsr-36" value="DEVOPS" style="rounded=0;whiteSpace=wrap;html=1;dashed=1;labelBackgroundColor=default;sketch=1;fillStyle=solid;strokeColor=#660033;fontColor=#000000;fillColor=#FF99CC;opacity=10;strokeWidth=3;fontSize=14;verticalAlign=bottom;labelPosition=center;verticalLabelPosition=top;align=center;fontStyle=1" parent="1" vertex="1">
          <mxGeometry x="-560" y="230" width="1000" height="340" as="geometry" />
        </mxCell>
      </root>
    </mxGraphModel>
  </diagram>
</mxfile>
